<?xml version="1.0" encoding="UTF-8" standalone="no"?>
<!-- Created with Inkscape (http://www.inkscape.org/) -->

<svg
   xmlns:dc="http://purl.org/dc/elements/1.1/"
   xmlns:cc="http://creativecommons.org/ns#"
   xmlns:rdf="http://www.w3.org/1999/02/22-rdf-syntax-ns#"
   xmlns:svg="http://www.w3.org/2000/svg"
   xmlns="http://www.w3.org/2000/svg"
   xmlns:sodipodi="http://sodipodi.sourceforge.net/DTD/sodipodi-0.dtd"
   xmlns:inkscape="http://www.inkscape.org/namespaces/inkscape"
   width="210mm"
   height="297mm"
   viewBox="0 0 744.09448819 1052.3622047"
   id="svg2"
   version="1.1"
   inkscape:version="0.91 r13725"
   sodipodi:docname="loguncov.svg">
  <defs
     id="defs4" />
  <sodipodi:namedview
     id="base"
     pagecolor="#ffffff"
     bordercolor="#666666"
     borderopacity="1.0"
     inkscape:pageopacity="0.0"
     inkscape:pageshadow="2"
     inkscape:zoom="3.8004874"
     inkscape:cx="455.62056"
     inkscape:cy="88.51266"
     inkscape:document-units="px"
     inkscape:current-layer="layer1"
     showgrid="false"
     inkscape:window-width="1920"
     inkscape:window-height="1017"
     inkscape:window-x="-8"
     inkscape:window-y="-8"
     inkscape:window-maximized="1" />
  <metadata
     id="metadata7">
    <rdf:RDF>
      <cc:Work
         rdf:about="">
        <dc:format>image/svg+xml</dc:format>
        <dc:type
           rdf:resource="http://purl.org/dc/dcmitype/StillImage" />
        <dc:title />
      </cc:Work>
    </rdf:RDF>
  </metadata>
  <g
     inkscape:label="Layer 1"
     inkscape:groupmode="layer"
     id="layer1">
    <text
       xml:space="preserve"
       style="font-style:normal;font-variant:normal;font-weight:bold;font-stretch:normal;font-size:40px;line-height:125%;font-family:Aharoni;-inkscape-font-specification:'Aharoni Bold';letter-spacing:0px;word-spacing:0px;fill:#8156a1;fill-opacity:1;stroke:none;stroke-width:1px;stroke-linecap:butt;stroke-linejoin:miter;stroke-opacity:1"
       x="283.55069"
       y="905.00513"
       id="text4321"
       sodipodi:linespacing="125%"><tspan
         sodipodi:role="line"
         id="tspan4323"
         x="283.55069"
         y="905.00513">Логунцов</tspan></text>
    <path
       style="fill:#7b4e9d;fill-opacity:1"
       d="m 319.39171,749.86288 c -8.96711,-3.89825 -9.64376,-18.41235 -1.07993,-23.16455 3.69183,-2.04866 30.19939,-1.82677 33.77041,0.28268 8.59538,5.07742 7.7086,19.09795 -1.44995,22.92464 -4.68366,1.95696 -26.70994,1.92681 -31.24053,-0.0428 z m 31.43823,-2.54399 c 6.14162,-3.89973 6.74103,-12.73498 1.18135,-17.41314 -2.94407,-2.47727 -3.49164,-2.56028 -16.88927,-2.56028 -13.39763,0 -13.9452,0.083 -16.88927,2.56028 -7.0584,5.93925 -4.17821,16.83202 4.96261,18.76837 5.05681,1.07121 25.3831,0.0744 27.63458,-1.35523 z m -31.07306,-3.046 c -1.94807,-1.53235 -2.63486,-2.98309 -2.63486,-5.56574 0,-8.15986 3.89751,-9.82038 20.63129,-8.7899 9.3843,0.57789 12.02029,1.0798 13.51357,2.57308 2.72903,2.72903 2.43252,8.36867 -0.59941,11.40059 -2.35256,2.35257 -2.99092,2.45455 -15.36514,2.45455 -11.5471,0 -13.18886,-0.21889 -15.54545,-2.07258 z m 27.68088,-1.07712 c 4.05832,-2.13614 4.89486,-5.85512 2.02927,-9.02156 -1.4354,-1.5861 -3.31569,-1.82874 -14.17126,-1.82874 -10.24319,0 -12.84839,0.30056 -14.34501,1.65499 -3.08414,2.79111 -1.86539,8.20837 2.17126,9.65103 2.9427,1.05169 22.13527,0.69199 24.31574,-0.45572 z m -25.11574,-2.0503 c -0.66,-0.66 -1.2,-2.145 -1.2,-3.3 0,-4.21115 4.40816,-5.94899 7.42857,-2.92857 1.42857,1.42857 1.71429,1.42857 3.14286,0 2.11434,-2.11435 5.15362,-1.98455 6.56817,0.2805 1.12572,1.80257 1.2059,1.80257 3.00847,0 3.30224,-3.30224 7.85193,-1.76785 7.85193,2.64807 0,4.21805 -5.36517,6.17478 -8.05244,2.93681 -1.17649,-1.41758 -1.37882,-1.41758 -2.17214,0 -0.48114,0.85976 -2.18008,1.56319 -3.77542,1.56319 -1.59534,0 -3.29428,-0.70343 -3.77542,-1.56319 -0.79332,-1.41758 -0.99565,-1.41758 -2.17214,0 -1.54052,1.85621 -5.1672,2.04843 -6.85244,0.36319 z m 5.13357,-2.22689 c 0.72568,-1.89109 -1.52127,-3.69317 -3.26283,-2.61683 -1.6558,1.02334 -0.6916,4.04372 1.29089,4.04372 0.78341,0 1.67079,-0.6421 1.97194,-1.42689 z m 9.48975,-0.90598 c 0.21801,-1.12408 -0.35203,-1.66713 -1.75,-1.66713 -1.14032,0 -2.07332,0.6 -2.07332,1.33333 0,3.06275 3.23923,3.34555 3.82332,0.3338 z m 9.85378,0.73195 c 0.85252,-2.22164 -1.81066,-3.69307 -3.54542,-1.95888 -0.75258,0.75233 -1.06353,1.86106 -0.69099,2.46384 1.00603,1.62779 3.53361,1.32652 4.23641,-0.50496 z m -49.28084,-17.80882 c -0.71376,-1.86003 2.13126,-7.26703 4.48712,-8.52785 1.02448,-0.54828 2.36635,-2.99708 2.98193,-5.44177 1.48972,-5.91622 6.62076,-12.43314 12.04197,-15.29447 3.99182,-2.10688 5.69741,-2.32617 18.09272,-2.32617 12.39531,0 14.1009,0.21929 18.09272,2.32617 5.42121,2.86133 10.55225,9.37825 12.04197,15.29447 0.61558,2.44469 1.95745,4.89349 2.98193,5.44177 2.35586,1.26082 5.20088,6.66782 4.48712,8.52785 -0.80355,2.09401 -6.01825,1.71418 -8.10374,-0.59026 -2.27269,-2.51129 -2.95483,-2.50155 -5.35664,0.0765 -1.2936,1.38851 -2.88027,1.96832 -4.78896,1.75 -2.48859,-0.28466 -2.82794,-0.71097 -2.64793,-3.3265 0.13515,-1.96378 1.28012,-3.90737 3.31483,-5.62695 3.02012,-2.55238 3.06834,-2.72271 1.69844,-6 -0.77546,-1.85518 -2.1211,-3.96282 -2.99031,-4.68364 -1.39778,-1.15917 -1.96448,-0.11934 -4.9049,9 l -3.32453,10.31059 -10.5,0 -10.5,0 -3.32453,-10.31059 c -2.94042,-9.11934 -3.50712,-10.15917 -4.9049,-9 -0.86921,0.72082 -2.21485,2.82846 -2.99031,4.68364 -1.3699,3.27729 -1.32168,3.44762 1.69844,6 2.03471,1.71958 3.17968,3.66317 3.31483,5.62695 0.18001,2.61553 -0.15934,3.04184 -2.64793,3.3265 -1.90869,0.21832 -3.49536,-0.36149 -4.78896,-1.75 -2.40181,-2.57805 -3.08395,-2.58779 -5.35664,-0.0765 -2.08549,2.30444 -7.30019,2.68427 -8.10374,0.59026 z m 6.37167,-2.59026 c 0.79556,-1.27389 2.33202,-2 4.23207,-2 1.90005,0 3.43651,0.72611 4.23207,2 0.68696,1.1 2.05233,2 3.03416,2 1.65196,0 1.67213,-0.21851 0.27042,-2.92913 -0.83309,-1.61102 -2.41965,-3.21635 -3.52568,-3.56739 -2.94401,-0.93439 -2.55793,-5.24946 0.96701,-10.8077 4.75168,-7.49263 6.12408,-6.62933 10.02202,6.30422 l 3.3152,11 8.6848,0 8.6848,0 3.3152,-11 c 3.89794,-12.93355 5.27034,-13.79685 10.02202,-6.30422 3.52494,5.55824 3.91102,9.87331 0.96701,10.8077 -1.10603,0.35104 -2.69259,1.95637 -3.52568,3.56739 -1.40171,2.71062 -1.38154,2.92913 0.27042,2.92913 0.98183,0 2.3472,-0.9 3.03416,-2 0.79556,-1.27389 2.33202,-2 4.23207,-2 1.90005,0 3.43651,0.72611 4.23207,2 0.68696,1.1 1.81578,2 2.50848,2 2.27643,0 1.3185,-2.87429 -2.09586,-6.28865 -1.97165,-1.97164 -3.63421,-4.84196 -4.03162,-6.96035 -0.93024,-4.95859 -8.61487,-13.37953 -13.43013,-14.71693 -4.76231,-1.3227 -23.60357,-1.3227 -28.36588,0 -4.81526,1.3374 -12.49989,9.75834 -13.43013,14.71693 -0.39741,2.11839 -2.05997,4.98871 -4.03162,6.96035 -3.41436,3.41436 -4.37229,6.28865 -2.09586,6.28865 0.6927,0 1.82152,-0.9 2.50848,-2 z m 17.8844,-33.26495 c -2.35653,-1.72314 -6.65233,-13.90052 -6.65233,-18.85746 0,-3.12246 0.65907,-4.69051 2.92308,-6.95451 2.47893,-2.47894 3.71073,-2.92308 8.10699,-2.92308 4.5555,0 5.09318,-0.21214 4.43549,-1.75 -1.70501,-3.98676 -1.67957,-7.35604 0.0701,-9.28945 2.14068,-2.36542 4.27159,-2.48426 7.24179,-0.40385 2.32117,1.62581 3.11358,6.77455 1.22251,7.9433 -0.55,0.33992 -1,1.26648 -1,2.05902 0,1.08239 1.38784,1.44098 5.57692,1.44098 4.83064,0 5.96808,0.39116 8.5,2.92308 2.06503,2.06502 2.92084,3.89967 2.91544,6.25 -0.0114,4.98075 -3.58318,15.76246 -6.1143,18.45672 -2.09512,2.2302 -2.91389,2.3702 -13.8612,2.3702 -7.80262,0 -12.20433,-0.41662 -13.36449,-1.26495 z m 25.19628,-2.48505 c 1.18577,-1.00238 3.02278,-5.04474 4.3,-9.4622 1.90665,-6.59447 2.04154,-8.06398 0.93074,-10.13954 -1.72915,-3.23094 -5.12175,-4.64826 -11.1264,-4.64826 -4.65032,0 -4.95295,-0.15677 -4.95295,-2.56574 0,-1.41116 0.44839,-3.40356 0.99641,-4.42756 1.42446,-2.66163 0.19036,-5.0067 -2.63478,-5.0067 -2.98725,0 -4.03404,2.37508 -2.39587,5.43602 2.36704,4.42286 1.08828,6.00176 -5.42878,6.70301 -6.39637,0.68826 -9.54415,3.07379 -9.52934,7.22175 0.0126,3.52136 3.74601,14.70952 5.58751,16.74436 2.44844,2.70549 21.0926,2.81685 24.25346,0.14486 z m -22.09861,-9.3301 c -2.42473,-1.41228 -2.30461,-6.55272 0.18426,-7.88472 1.06384,-0.56935 5.59342,-1.03518 10.06574,-1.03518 9.17345,0 12,1.03174 12,4.3802 0,4.30629 -2.84485,5.62273 -12.07874,5.58939 -4.63169,-0.0167 -9.20876,-0.48908 -10.17126,-1.04969 z m 19.77707,-2.9637 c 1.576,-2.55003 -1.77787,-3.95619 -9.39951,-3.94089 -8.25417,0.0166 -10.76434,0.88288 -9.80466,3.38377 0.50012,1.3033 2.28236,1.60092 9.5867,1.60092 5.15391,0 9.24691,-0.44422 9.61747,-1.0438 z"
       id="path4147"
       inkscape:connector-curvature="0" />
    <g
       id="g4302"
       transform="matrix(0.25189365,0,0,0.25189365,227.9589,638.19464)">
      <g
         id="g4283">
        <g
           id="g4276">
          <path
             id="rect4229"
             d="m 337.93945,865.48828 c -6.92533,0 -12.50195,5.57662 -12.50195,12.50195 0,6.92534 5.57662,12.5 12.50195,12.5 l 20.70703,0 c 6.92534,0 12.50196,-5.57466 12.50196,-12.5 0,-6.92533 -5.57662,-12.50195 -12.50196,-12.50195 l -20.70703,0 z m -0.002,3.83008 20.81641,0 c 4.848,0 8.75,3.90199 8.75,8.75 0,4.848 -3.902,8.75 -8.75,8.75 l -20.81641,0 c -4.84801,0 -8.75,-3.902 -8.75,-8.75 0,-4.84801 3.90199,-8.75 8.75,-8.75 z"
             style="fill:#8156a1;fill-opacity:1;stroke:none"
             inkscape:connector-curvature="0" />
          <g
             transform="translate(-39.81617,62.887222)"
             id="g4185">
            <circle
               style="fill:#7b4e9d;fill-opacity:1;stroke:none"
               id="path4179"
               cx="378.23898"
               cy="814.91321"
               r="3.5986683" />
            <circle
               r="3.5986683"
               cy="814.91321"
               cx="388.23898"
               id="circle4181"
               style="fill:#7b4e9d;fill-opacity:1;stroke:none" />
            <circle
               style="fill:#7b4e9d;fill-opacity:1;stroke:none"
               id="circle4183"
               cx="398.23898"
               cy="814.91321"
               r="3.5986683" />
          </g>
        </g>
        <g
           id="g4221"
           transform="translate(-39.81617,62.887222)">
          <path
             id="path4190"
             d="m 388.69727,767.13477 c -15.17897,0.0212 -26.39539,4.03108 -30.04493,21.11914 l 6,0 c 3.64954,-17.08806 9.78689,-12.72982 24.04493,-15.11914 12.54942,1.86068 19.0813,-1.97081 24.04687,15.11914 l 6,0 c -3.64995,-17.08995 -14.86621,-21.10033 -30.04687,-21.11914 z"
             style="fill:#8156a1;fill-opacity:1;stroke:none;stroke-width:6;stroke-linejoin:round;stroke-miterlimit:4;stroke-dasharray:none;stroke-opacity:1"
             inkscape:connector-curvature="0" />
          <path
             id="path4211"
             d="m 360.80859,787.13281 a 9.9329367,9.9329367 0 0 0 -9.93164,9.9336 9.9329367,9.9329367 0 0 0 0.043,0.85547 l 5.88672,0 a 4.0784245,4.0784245 0 0 1 -0.01,-0.26368 4.0784245,4.0784245 0 0 1 4.07812,-4.07812 4.0784245,4.0784245 0 0 1 4.07812,4.07812 4.0784245,4.0784245 0 0 1 -0.0117,0.26368 l 5.75586,0 a 9.9329367,9.9329367 0 0 0 0.0449,-0.85547 9.9329367,9.9329367 0 0 0 -9.9336,-9.9336 z"
             style="fill:#8156a1;fill-opacity:1;stroke:none;stroke-width:6;stroke-linejoin:round;stroke-miterlimit:4;stroke-dasharray:none;stroke-opacity:1"
             inkscape:connector-curvature="0" />
          <path
             sodipodi:nodetypes="ccccc"
             inkscape:connector-curvature="0"
             id="rect4197"
             d="m 369.83487,772.95233 36.55951,0 -8.37222,25.25622 -19.86158,3e-5 z"
             style="fill:#8156a1;fill-opacity:1;stroke:none;stroke-width:6;stroke-linejoin:round;stroke-miterlimit:4;stroke-dasharray:none;stroke-opacity:1" />
          <path
             inkscape:connector-curvature="0"
             style="fill:#8156a1;fill-opacity:1;stroke:none;stroke-width:6;stroke-linejoin:round;stroke-miterlimit:4;stroke-dasharray:none;stroke-opacity:1"
             d="m 414.80859,787.13281 a 9.9329367,9.9329367 0 0 0 -9.93164,9.9336 9.9329367,9.9329367 0 0 0 0.043,0.85547 l 5.88672,0 a 4.0784245,4.0784245 0 0 1 -0.01,-0.26368 4.0784245,4.0784245 0 0 1 4.07812,-4.07812 4.0784245,4.0784245 0 0 1 4.07812,4.07812 4.0784245,4.0784245 0 0 1 -0.0117,0.26368 l 5.75586,0 a 9.9329367,9.9329367 0 0 0 0.0449,-0.85547 9.9329367,9.9329367 0 0 0 -9.9336,-9.9336 z"
             id="path4219" />
        </g>
      </g>
      <g
         id="g4296">
        <path
           style="fill:#8156a1;fill-opacity:1;fill-rule:evenodd;stroke:none;stroke-width:1px;stroke-linecap:butt;stroke-linejoin:miter;stroke-opacity:1"
           d="m 334.87328,797.19777 0,0.004 c -2.81483,0.0238 -4.66094,3.67442 -5.67773,6.31055 -0.57603,1.49343 -0.25764,3.22293 0,4.80273 0.71093,4.35933 1.96524,8.76104 4.21094,12.56446 0.93892,1.59019 1.90138,4.08867 3.74804,4.07812 0.0656,-3.7e-4 0.14493,3.6e-4 0.21094,0 l 0.006,0.0664 c 0,0 4.95309,-0.0345 10.71289,-0.0566 5.76047,0.0222 10.71289,0.0566 10.71289,0.0566 l 0.006,-0.0664 c 0.066,3.6e-4 0.14537,-3.7e-4 0.21094,0 1.84666,0.0105 2.81108,-2.48793 3.75,-4.07812 2.2457,-3.80342 3.49805,-8.20513 4.20898,-12.56446 0.25764,-1.5798 0.57603,-3.3093 0,-4.80273 -1.01657,-2.63557 -2.86196,-6.28518 -5.67578,-6.31055 l 0,-0.004 c 0,0 -0.0447,0 -0.0449,0 -6.6e-4,0 -0.001,-10e-6 -0.002,0 -3.81003,0.0213 -8.65742,0.0198 -13.16602,0.0176 -4.50815,0.002 -9.35643,0.004 -13.16601,-0.0176 -10e-6,0 -0.002,0 -0.002,0 -1.7e-4,0 -0.043,0 -0.043,0 z"
           id="path4256"
           inkscape:connector-curvature="0" />
        <rect
           ry="3.0917087"
           y="805.61804"
           x="337.43811"
           height="6.1834173"
           width="21.444618"
           id="rect4261"
           style="fill:#ffffff;fill-opacity:1;stroke:none;stroke-width:6;stroke-linejoin:round;stroke-miterlimit:4;stroke-dasharray:none;stroke-opacity:1" />
        <rect
           style="fill:#8156a1;fill-opacity:1;stroke:none;stroke-width:6;stroke-linejoin:round;stroke-miterlimit:4;stroke-dasharray:none;stroke-opacity:1"
           id="rect4263"
           width="4.6704535"
           height="6.9727898"
           x="345.39758"
           y="791.08044"
           ry="0" />
        <circle
           style="fill:#8156a1;fill-opacity:1;stroke:none;stroke-width:6;stroke-linejoin:round;stroke-miterlimit:4;stroke-dasharray:none;stroke-opacity:1"
           id="path4267"
           cx="347.60123"
           cy="788.61365"
           r="4.5717821" />
      </g>
    </g>
    <g
       id="g4350"
       transform="matrix(0.92170921,0,0,1.0047643,21.667568,-28.197436)">
      <path
         id="rect4336"
         d="m 173.39844,861.33398 c -12.39052,0 -22.36524,9.97667 -22.36524,22.36719 l 0,24.9961 7.15821,0 0,-20.79297 c 0,-10.97118 6.86504,-19.80469 15.39257,-19.80469 8.52755,0 15.39258,8.83351 15.39258,19.80469 l 0,20.79297 6.78711,0 0,-24.9961 c 0,-12.39052 -9.97471,-22.36719 -22.36523,-22.36719 z"
         style="fill:#8156a1;fill-opacity:1;stroke:#8156a1;stroke-width:6;stroke-linejoin:round;stroke-miterlimit:4;stroke-dasharray:none;stroke-opacity:1"
         inkscape:connector-curvature="0" />
      <path
         inkscape:connector-curvature="0"
         style="fill:#8156a1;fill-opacity:1;stroke:#8156a1;stroke-width:6;stroke-linejoin:round;stroke-miterlimit:4;stroke-dasharray:none;stroke-opacity:1"
         d="m 211.39844,861.33398 c -12.39052,0 -22.36524,9.97667 -22.36524,22.36719 l 0,24.9961 7.15821,0 0,-20.79297 c 0,-10.97118 6.86504,-19.80469 15.39257,-19.80469 8.52755,0 15.39258,8.83351 15.39258,19.80469 l 0,20.79297 6.78711,0 0,-24.9961 c 0,-12.39052 -9.97471,-22.36719 -22.36523,-22.36719 z"
         id="path4348" />
    </g>
    <text
       sodipodi:linespacing="125%"
       id="text4356"
       y="965.28754"
       x="284.29492"
       style="font-style:normal;font-variant:normal;font-weight:bold;font-stretch:normal;font-size:40px;line-height:125%;font-family:'Comic Sans MS';-inkscape-font-specification:'Comic Sans MS Bold';letter-spacing:0px;word-spacing:0px;fill:#8156a1;fill-opacity:1;stroke:none;stroke-width:1px;stroke-linecap:butt;stroke-linejoin:miter;stroke-opacity:1;"
       xml:space="preserve"><tspan
         y="965.28754"
         x="284.29492"
         id="tspan4358"
         sodipodi:role="line">Логунцов</tspan></text>
    <text
       xml:space="preserve"
       style="font-style:normal;font-variant:normal;font-weight:bold;font-stretch:normal;font-size:40px;line-height:125%;font-family:'Segoe Print';-inkscape-font-specification:'Segoe Print Bold';letter-spacing:0px;word-spacing:0px;fill:#8156a1;fill-opacity:1;stroke:none;stroke-width:1px;stroke-linecap:butt;stroke-linejoin:miter;stroke-opacity:1;"
       x="72.934319"
       y="960.82214"
       id="text4360"
       sodipodi:linespacing="125%"><tspan
         sodipodi:role="line"
         id="tspan4362"
         x="72.934319"
         y="960.82214">Логунцов</tspan></text>
    <text
       sodipodi:linespacing="125%"
       id="text4364"
       y="1024.8257"
       x="65.492043"
       style="font-style:normal;font-variant:normal;font-weight:bold;font-stretch:normal;font-size:40px;line-height:125%;font-family:'Segoe Script';-inkscape-font-specification:'Segoe Script Bold';letter-spacing:0px;word-spacing:0px;fill:#8156a1;fill-opacity:1;stroke:none;stroke-width:1px;stroke-linecap:butt;stroke-linejoin:miter;stroke-opacity:1;"
       xml:space="preserve"><tspan
         y="1024.8257"
         x="65.492043"
         id="tspan4366"
         sodipodi:role="line">Логунцов</tspan></text>
    <text
       xml:space="preserve"
       style="font-style:normal;font-variant:normal;font-weight:bold;font-stretch:normal;font-size:40px;line-height:125%;font-family:'Segoe Script';-inkscape-font-specification:'Segoe Script Bold';letter-spacing:0px;word-spacing:0px;fill:#8156a1;fill-opacity:1;stroke:none;stroke-width:1px;stroke-linecap:butt;stroke-linejoin:miter;stroke-opacity:1"
       x="297.69101"
       y="1020.3603"
       id="text4368"
       sodipodi:linespacing="125%"><tspan
         sodipodi:role="line"
         id="tspan4370"
         x="297.69101"
         y="1020.3603">Loguncov</tspan></text>
    <text
       xml:space="preserve"
       style="font-style:normal;font-weight:normal;font-size:40px;line-height:125%;font-family:sans-serif;letter-spacing:0px;word-spacing:0px;fill:#000000;fill-opacity:1;stroke:none;stroke-width:1px;stroke-linecap:butt;stroke-linejoin:miter;stroke-opacity:1"
       x="158.52045"
       y="1103.7139"
       id="text4372"
       sodipodi:linespacing="125%"><tspan
         sodipodi:role="line"
         id="tspan4374"
         x="158.52045"
         y="1103.7139" /></text>
    <text
       xml:space="preserve"
       style="font-style:normal;font-variant:normal;font-weight:bold;font-stretch:normal;font-size:40px;line-height:125%;font-family:'Comic Sans MS';-inkscape-font-specification:'Comic Sans MS Bold';letter-spacing:0px;word-spacing:0px;fill:#8156a1;fill-opacity:1;stroke:none;stroke-width:1px;stroke-linecap:butt;stroke-linejoin:miter;stroke-opacity:1;"
       x="284.29492"
       y="965.28754"
       id="text4376"
       sodipodi:linespacing="125%"><tspan
         sodipodi:role="line"
         id="tspan4378"
         x="284.29492"
         y="965.28754">Логунцов</tspan></text>
    <text
       sodipodi:linespacing="125%"
       id="text4380"
       y="953.75201"
       x="486.72479"
       style="font-style:normal;font-variant:normal;font-weight:bold;font-stretch:normal;font-size:40px;line-height:125%;font-family:'Comic Sans MS';-inkscape-font-specification:'Comic Sans MS Bold';letter-spacing:0px;word-spacing:0px;fill:#8156a1;fill-opacity:1;stroke:none;stroke-width:1px;stroke-linecap:butt;stroke-linejoin:miter;stroke-opacity:1"
       xml:space="preserve"><tspan
         y="953.75201"
         x="486.72479"
         id="tspan4382"
         sodipodi:role="line">Loguncov</tspan></text>
    <text
       sodipodi:linespacing="125%"
       id="text4384"
       y="918.40118"
       x="81.120819"
       style="font-style:normal;font-variant:normal;font-weight:bold;font-stretch:normal;font-size:40px;line-height:125%;font-family:'Segoe Print';-inkscape-font-specification:'Segoe Print Bold';letter-spacing:0px;word-spacing:0px;fill:#8156a1;fill-opacity:1;stroke:none;stroke-width:1px;stroke-linecap:butt;stroke-linejoin:miter;stroke-opacity:1"
       xml:space="preserve"><tspan
         y="918.40118"
         x="81.120819"
         id="tspan4386"
         sodipodi:role="line">Loguncov</tspan></text>
  </g>
</svg>
