<?xml version="1.0" encoding="UTF-8" standalone="no"?>
<!-- Created with Inkscape (http://www.inkscape.org/) -->

<svg
   xmlns:dc="http://purl.org/dc/elements/1.1/"
   xmlns:cc="http://creativecommons.org/ns#"
   xmlns:rdf="http://www.w3.org/1999/02/22-rdf-syntax-ns#"
   xmlns:svg="http://www.w3.org/2000/svg"
   xmlns="http://www.w3.org/2000/svg"
   xmlns:sodipodi="http://sodipodi.sourceforge.net/DTD/sodipodi-0.dtd"
   xmlns:inkscape="http://www.inkscape.org/namespaces/inkscape"
   width="40.821499mm"
   height="44.159985mm"
   viewBox="0 0 144.64311 156.47239"
   id="svg2"
   version="1.1"
   inkscape:version="0.91 r13725"
   sodipodi:docname="vareshka.svg">
  <defs
     id="defs4" />
  <sodipodi:namedview
     id="base"
     pagecolor="#ffffff"
     bordercolor="#666666"
     borderopacity="1.0"
     inkscape:pageopacity="0.0"
     inkscape:pageshadow="2"
     inkscape:zoom="0.98994949"
     inkscape:cx="-141.75821"
     inkscape:cy="145.56333"
     inkscape:document-units="px"
     inkscape:current-layer="layer1"
     showgrid="false"
     fit-margin-top="0"
     fit-margin-left="0"
     fit-margin-right="0"
     fit-margin-bottom="0"
     inkscape:window-width="1920"
     inkscape:window-height="1017"
     inkscape:window-x="-8"
     inkscape:window-y="-8"
     inkscape:window-maximized="1" />
  <metadata
     id="metadata7">
    <rdf:RDF>
      <cc:Work
         rdf:about="">
        <dc:format>image/svg+xml</dc:format>
        <dc:type
           rdf:resource="http://purl.org/dc/dcmitype/StillImage" />
        <dc:title />
      </cc:Work>
    </rdf:RDF>
  </metadata>
  <g
     inkscape:label="Layer 1"
     inkscape:groupmode="layer"
     id="layer1"
     transform="translate(-433.92301,-484.20981)">
    <g
       id="g4302"
       inkscape:export-xdpi="90"
       inkscape:export-ydpi="90">
      <path
         sodipodi:nodetypes="ccsssccc"
         inkscape:connector-curvature="0"
         id="rect4226"
         d="m 381.70181,597.06372 75.25162,-16.08854 c 1.50554,1.44684 7.12507,6.55046 5.14751,12.0961 -2.25643,6.32766 -11.92845,13.11756 -5.65935,13.72969 57.11601,5.57692 57.86679,24.59737 57.54636,33.99346 -0.64085,18.79216 -17.33703,25.54313 -31.17151,33.88284 l -101.11463,-0.72858 z"
         style="fill:#0389df;fill-opacity:1;stroke:none"
         transform="matrix(0.99025041,-0.13929871,0.0989028,0.9950971,0,0)" />
      <circle
         style="fill:#ffffff;fill-opacity:1;stroke:none"
         id="circle4252"
         cx="522.37518"
         cy="569.38312"
         r="16.036171" />
      <circle
         r="10.888759"
         cy="569.38312"
         cx="522.37518"
         id="circle4254"
         style="fill:#004996;fill-opacity:1;stroke:none" />
      <path
         id="path4243"
         d="m 510.93359,508.31445 c -0.33303,-0.0307 -0.64694,0.0109 -0.93554,0.12891 -0.99429,0.40654 -6.5336,3.30033 -12.3086,6.43164 -21.05046,11.41391 -42.86949,19.80664 -51.49218,19.80664 -5.75954,0 -9.02161,1.32909 -11.11719,4.52734 -1.93617,2.95497 -1.86193,4.01664 3.50781,50.40821 2.78297,24.04327 2.87373,24.47266 5.64844,26.85937 2.42074,2.08223 3.46603,2.33366 7.38672,1.78516 2.51186,-0.3514 8.6934,-0.90885 13.73633,-1.24024 l 9.16796,-0.60351 0.53711,4.38281 c 0.29493,2.41011 0.73901,6.29336 0.98633,8.63086 l 0.44922,4.25 -3.4707,0 c -6.0594,0 -9.08231,2.85713 -6.13868,5.80078 1.62848,1.62847 14.23914,1.58719 15.57032,-0.0508 0.67942,-0.83605 0.70048,-4.67876 0.0645,-11.60742 -0.52301,-5.69755 -0.66435,-10.64617 -0.31445,-10.9961 0.34991,-0.3499 5.77687,-0.79863 12.05859,-0.99804 10.59845,-0.33644 11.41843,-0.22993 11.40235,1.49414 -0.01,1.02186 -0.46192,6.08359 -1.00586,11.24805 -1.23323,11.70886 -0.96879,12.10937 7.94726,12.10937 6.08067,0 9.07617,-1.03126 9.07617,-3.12695 0,-1.95697 -3.51352,-3.87305 -7.10547,-3.87305 l -3.96289,0 0.57813,-5.25 c 0.31774,-2.8875 0.80084,-7.09879 1.07422,-9.35937 l 0.49804,-4.10938 6.83985,-0.63672 c 20.25093,-1.88212 37.87555,-12.11884 48.93164,-28.41992 8.43478,-12.43623 11.58236,-21.73838 9.30469,-27.50195 -1.33426,-3.37631 -10.25465,-11.49359 -15.94727,-14.51368 -10.22955,-5.42703 -16.22043,-6.69371 -31.39062,-6.63281 l -13.67969,0.0547 1.48242,-2.86914 c 2.59701,-5.02207 2.85748,-11.89523 0.63672,-16.8457 -2.39699,-5.34337 -5.6844,-9.06815 -8.01563,-9.28321 z m -0.40234,8.82032 c 0.0582,0.003 0.10254,0.0125 0.13281,0.0312 0.4843,0.29931 1.39847,2.11391 2.03125,4.03125 1.44721,4.38509 0.0429,9.24579 -4.38086,15.17187 -2.51366,3.36731 -4.49413,4.68758 -10.125,6.75391 -3.85,1.41282 -7.57965,2.56745 -8.28906,2.56445 -2.97746,-0.0111 -9.21094,4.08092 -9.21094,6.04688 0,3.40899 2.62801,3.31526 14.13086,-0.50586 15.46377,-5.1369 24.23357,-6.61413 40.08008,-6.7461 13.45512,-0.11206 13.8298,-0.0545 20.08984,3.02735 7.39063,3.63839 16.6993,12.76015 16.69922,16.36328 -10e-5,4.27282 -9.18618,18.96415 -16.5,26.38867 -11.31841,11.48972 -22.23551,15.75442 -44.5,17.38281 -6.875,0.50283 -19.5636,1.18358 -28.19726,1.51367 l -15.69727,0.59961 -0.5625,-3.28711 c -0.96071,-5.62294 -7.59287,-66.07119 -7.2832,-66.38086 0.16118,-0.16118 3.88179,-1.62929 8.26758,-3.26367 12.00175,-4.47246 15.47265,-6.07241 15.47265,-7.13086 0,-1.3307 5.42668,-4.01367 8.11914,-4.01367 1.2196,0 5.98742,-2.03765 10.59571,-4.5293 4.32026,-2.33592 8.25326,-4.05801 9.12695,-4.01757 z m -63.30469,24.54687 c 3.02891,0 3.42774,0.33146 3.90821,3.25 0.63478,3.85593 6.60486,57.92484 6.87109,62.22852 0.17233,2.7857 -0.0911,3.01542 -4.0918,3.57031 -6.55272,0.90883 -7.51487,-1.143 -2.79883,-5.97266 4.00825,-4.10481 4.50268,-7.47634 1.38282,-9.43164 -1.28294,-0.80406 -2.15408,-0.64125 -3.60938,0.67578 -1.86073,1.68394 -1.9381,1.59531 -2.55859,-2.93164 -1.18577,-8.65117 -0.8362,-10.42898 2.85937,-14.51953 3.95125,-4.37356 4.14065,-5.08591 1.92969,-7.29687 -1.97149,-1.97147 -3.31626,-1.98249 -5.45508,-0.0469 -1.5567,1.40879 -1.73238,1.05267 -2.33398,-4.70312 -0.64276,-6.14959 -0.60719,-6.27001 2.94922,-9.91211 3.78024,-3.8713 4.13782,-6.4222 1.16406,-8.29492 -1.28574,-0.80966 -2.25077,-0.78448 -3.66016,0.0957 -1.55665,0.97214 -2.02506,0.90798 -2.5039,-0.33985 -1.77194,-4.6176 -0.13526,-6.37109 5.94726,-6.37109 z"
         style="fill:#004996;fill-opacity:1"
         inkscape:connector-curvature="0" />
      <path
         id="path4235"
         d="m 481.88241,577.0068 c -5.60399,-2.76172 -8.89812,-11.60938 -5.86616,-15.75583 2.21507,-3.02929 5.6738,-1.20123 5.6738,2.99881 0,4.82893 3.17036,7.84159 7.34897,6.98344 6.69059,-1.37404 8.13352,-1.17404 8.46723,1.17361 0.23104,1.62536 -0.57691,2.76895 -3,4.24626 -3.99146,2.43352 -8.16621,2.55049 -12.62384,0.35371 z"
         style="fill:#004996;fill-opacity:1"
         inkscape:connector-curvature="0" />
      <circle
         r="10.227795"
         cy="535.79547"
         cx="491.31296"
         id="path4248"
         style="fill:#ffffff;fill-opacity:1;stroke:none" />
      <circle
         style="fill:#004996;fill-opacity:1;stroke:none"
         id="circle4250"
         cx="491.31296"
         cy="535.79547"
         r="6.9447989" />
      <rect
         transform="matrix(0.96538055,-0.26084554,0.26084554,0.96538055,0,0)"
         ry="4.1541719"
         y="587.67963"
         x="313.61111"
         height="33.233376"
         width="8.6574345"
         id="rect4260"
         style="fill:#0089e1;fill-opacity:1;stroke:none" />
      <rect
         inkscape:transform-center-y="-3.7778419"
         inkscape:transform-center-x="4.9757804"
         transform="matrix(0.70271364,0.7114728,-0.7114728,0.70271364,0,0)"
         style="fill:#0089e1;fill-opacity:1;stroke:none"
         id="rect4262"
         width="8.6574345"
         height="34.629738"
         x="678.07294"
         y="4.3188195"
         ry="4.3287172" />
      <rect
         ry="4.3287172"
         y="557.27588"
         x="365.22867"
         height="34.629738"
         width="8.6574345"
         id="rect4266"
         style="fill:#0089e1;fill-opacity:1;stroke:none"
         transform="matrix(-0.24876847,0.96856298,0.96856298,0.24876847,0,0)"
         inkscape:transform-center-x="-4.9757576"
         inkscape:transform-center-y="-3.7778489" />
      <rect
         transform="matrix(0.94507214,0.32686183,-0.32686183,0.94507214,0,0)"
         style="fill:#0089e1;fill-opacity:1;stroke:none"
         id="rect4275"
         width="7.8286824"
         height="30.052038"
         x="680.55188"
         y="290.95184"
         ry="3.7565048" />
      <rect
         ry="3.9143412"
         y="-460.01208"
         x="599.54266"
         height="31.31473"
         width="7.8286824"
         id="rect4277"
         style="fill:#0089e1;fill-opacity:1;stroke:none"
         transform="matrix(0.18131692,0.98342472,-0.98342472,0.18131692,0,0)"
         inkscape:transform-center-x="4.9757804"
         inkscape:transform-center-y="-3.7778419" />
      <rect
         inkscape:transform-center-y="-3.7778489"
         inkscape:transform-center-x="-4.9757576"
         transform="matrix(-0.75014915,0.66126867,0.66126867,0.75014915,0,0)"
         style="fill:#0089e1;fill-opacity:1;stroke:none"
         id="rect4279"
         width="7.8286824"
         height="31.31473"
         x="-74.600761"
         y="730.83807"
         ry="3.9143412" />
      <path
         sodipodi:nodetypes="scccccs"
         inkscape:connector-curvature="0"
         id="rect4285"
         d="m 538.50553,546.22943 c 0.70745,-1.90129 2.98387,-2.09198 4.70891,-2.15495 6.89811,-0.25179 14.3524,2.52183 19.40816,7.22148 1.26431,1.17526 2.75692,3.09107 2.15496,4.70891 -0.60197,1.61783 -3.28787,3.6408 -4.70891,2.15496 -6.32366,-3.92043 -10.82831,-7.02358 -19.40815,-7.22148 -3.19137,-0.0506 -2.86241,-2.80762 -2.15497,-4.70892 z"
         style="fill:#ffffff;fill-opacity:1;stroke:none;stroke-width:1;stroke-linecap:round;stroke-linejoin:round;stroke-miterlimit:4;stroke-dasharray:none" />
      <rect
         transform="matrix(0.81138611,0.58451054,-0.58451054,0.81138611,0,0)"
         ry="5.0507627"
         y="177.58304"
         x="750.66101"
         height="10.101525"
         width="16.344612"
         id="rect4290"
         style="fill:#60bff3;fill-opacity:1;stroke:none;stroke-width:1;stroke-linecap:round;stroke-linejoin:round;stroke-miterlimit:4;stroke-dasharray:none" />
      <rect
         style="fill:#60bff3;fill-opacity:1;stroke:none;stroke-width:1;stroke-linecap:round;stroke-linejoin:round;stroke-miterlimit:4;stroke-dasharray:none"
         id="rect4292"
         width="13.080841"
         height="8.084404"
         x="695.79675"
         y="159.35765"
         ry="4.042202"
         transform="matrix(0.81138611,0.58451054,-0.58451054,0.81138611,0,0)" />
    </g>
  </g>
</svg>
