<?xml version="1.0" encoding="UTF-8" standalone="no"?>
<!-- Created with Inkscape (http://www.inkscape.org/) -->

<svg
   xmlns:dc="http://purl.org/dc/elements/1.1/"
   xmlns:cc="http://creativecommons.org/ns#"
   xmlns:rdf="http://www.w3.org/1999/02/22-rdf-syntax-ns#"
   xmlns:svg="http://www.w3.org/2000/svg"
   xmlns="http://www.w3.org/2000/svg"
   xmlns:sodipodi="http://sodipodi.sourceforge.net/DTD/sodipodi-0.dtd"
   xmlns:inkscape="http://www.inkscape.org/namespaces/inkscape"
   width="75.050957mm"
   height="76.724022mm"
   viewBox="0 0 265.92859 271.85677"
   id="svg2"
   version="1.1"
   inkscape:version="0.91 r13725"
   sodipodi:docname="wolf.svg">
  <defs
     id="defs4">
    <filter
       inkscape:collect="always"
       style="color-interpolation-filters:sRGB"
       id="filter4738"
       x="-0.04343557"
       width="1.0868711"
       y="-0.0344107"
       height="1.0688214">
      <feGaussianBlur
         inkscape:collect="always"
         stdDeviation="1.5152572"
         id="feGaussianBlur4740" />
    </filter>
  </defs>
  <sodipodi:namedview
     id="base"
     pagecolor="#ffffff"
     bordercolor="#666666"
     borderopacity="1.0"
     inkscape:pageopacity="0.0"
     inkscape:pageshadow="2"
     inkscape:zoom="1.979899"
     inkscape:cx="52.006359"
     inkscape:cy="115.80174"
     inkscape:document-units="px"
     inkscape:current-layer="layer1"
     showgrid="false"
     inkscape:window-width="1920"
     inkscape:window-height="1017"
     inkscape:window-x="-8"
     inkscape:window-y="-8"
     inkscape:window-maximized="1"
     fit-margin-top="0"
     fit-margin-left="0"
     fit-margin-right="0"
     fit-margin-bottom="0" />
  <metadata
     id="metadata7">
    <rdf:RDF>
      <cc:Work
         rdf:about="">
        <dc:format>image/svg+xml</dc:format>
        <dc:type
           rdf:resource="http://purl.org/dc/dcmitype/StillImage" />
        <dc:title></dc:title>
      </cc:Work>
    </rdf:RDF>
  </metadata>
  <g
     inkscape:label="Layer 1"
     inkscape:groupmode="layer"
     id="layer1"
     transform="translate(-355.85715,-536.64789)">
    <g
       id="g4752"
       inkscape:export-xdpi="90"
       inkscape:export-ydpi="90">
      <rect
         ry="5.0507598"
         y="536.64789"
         x="357.85715"
         height="126.78571"
         width="113.92857"
         id="rect4152"
         style="fill:#60bff3;fill-opacity:1;stroke:none;stroke-width:1;stroke-linecap:round;stroke-linejoin:round;stroke-miterlimit:4;stroke-dasharray:none" />
      <path
         id="path4147"
         d="m 378.55273,546.72852 c -2.5846,-0.0906 -5.19568,1.64548 -5.79492,4.05468 -0.3039,1.22163 -0.42353,18.90719 -0.26367,39.30078 l 0.29102,37.08008 2.70507,3.54492 c 2.44796,3.20817 14.32346,10.76977 30.29493,19.29102 7.913,4.22182 11.30065,3.4355 29.04101,-6.74805 9.60952,-5.51618 16.03194,-9.90172 17.95899,-12.25976 l 3,-3.66992 0.29101,-37.15821 c 0.15986,-20.43717 0.0421,-38.15923 -0.26172,-39.38086 -0.68484,-2.75337 -3.99945,-4.62749 -6.89648,-3.90039 -1.19982,0.30114 -5.75683,4.83835 -10.12695,10.08399 -4.37013,5.24563 -8.30493,9.53906 -8.74414,9.53906 -0.43923,0 -3.3279,-1.35 -6.41993,-3 -7.21198,-3.84852 -11.46966,-3.84852 -18.68164,0 -3.09203,1.65 -5.9807,3 -6.41992,3 -0.43922,0 -4.37401,-4.29343 -8.74414,-9.53906 -4.37012,-5.24564 -8.92713,-9.78285 -10.12695,-10.08399 -0.36213,-0.0909 -0.73234,-0.14136 -1.10157,-0.15429 z m 72.0918,5.0625 c 2.70557,0.90075 1.35319,4.13232 -4.88281,11.66992 -3.66007,4.424 -6.95326,8.03037 -7.31641,8.01367 -0.36314,-0.0167 -1.45564,-0.49262 -2.42773,-1.05859 -1.56841,-0.91316 -0.90741,-2.04182 5.85937,-10.01758 4.19401,-4.94333 8.1395,-8.81652 8.76758,-8.60742 z m -72.98242,0.25195 c 1.36483,-0.12664 3.98716,2.40843 9.04101,8.36523 7.05952,8.32079 7.48666,9.07668 5.67383,10.04688 -1.07823,0.57705 -2.17374,1.05078 -2.43554,1.05078 -1.32999,0 -13.74098,-16.31764 -13.47071,-17.71094 0.21077,-1.08657 0.57103,-1.69439 1.19141,-1.75195 z m -0.50977,12.46289 c 0.91193,0 8.13282,8.8597 8.13282,9.97852 0,0.35787 -1.6875,1.50857 -3.75,2.55859 -2.0625,1.05002 -4.0875,2.07184 -4.5,2.26953 -0.4125,0.19768 -0.75,-3.05377 -0.75,-7.22461 0,-4.17083 0.39075,-7.58203 0.86718,-7.58203 z m 74.26758,0 c 0.47643,0 0.86524,3.375 0.86524,7.5 0,4.125 -0.3375,7.45032 -0.75,7.39062 -1.32078,-0.19099 -8.2431,-4.36874 -8.2461,-4.97656 -0.005,-1.0692 7.24903,-9.91406 8.13086,-9.91406 z m -37.13476,1 c 2.66706,0 5.73818,0.93389 8.61718,2.62109 4.11081,2.4091 4.34822,2.75872 2.92969,4.32617 -1.32274,1.46161 -2.25895,1.55962 -6.54492,0.68165 -3.41423,-0.6994 -6.58772,-0.6994 -10.00195,0 -4.28597,0.87797 -5.22414,0.77996 -6.54688,-0.68165 -1.41853,-1.56746 -1.18112,-1.91707 2.92969,-4.32617 2.879,-1.6872 5.95013,-2.62109 8.61719,-2.62109 z m -17.48438,8 c 2.17044,0 2.5442,2.89766 0.51367,3.98437 -2.37278,1.26982 -2.75607,1.26606 -3.55664,-0.0293 -0.78395,-1.26846 1.28351,-3.95508 3.04297,-3.95508 z m 34.86719,0.15234 c 0.40628,0.0172 0.86103,0.15651 1.33984,0.45508 0.97816,0.60994 1.77735,1.69875 1.77735,2.41797 0,1.86346 -1.79505,2.21316 -3.77149,0.73633 -1.96473,-1.46809 -1.10627,-3.68406 0.6543,-3.60938 z m -17.38281,3.43946 c 2.07302,0 4.1459,0.22755 5.3125,0.68359 1.63491,0.63911 1.48784,1.10103 -1.5,4.69922 -1.82195,2.19413 -3.5375,3.98828 -3.8125,3.98828 -0.275,0 -1.99055,-1.79415 -3.8125,-3.98828 -2.98784,-3.59819 -3.13491,-4.06011 -1.5,-4.69922 1.16659,-0.45604 3.23947,-0.68359 5.3125,-0.68359 z m -25.73828,1.84179 c 2.06522,-0.18408 1.70842,1.85751 -1.54883,5.46289 -4.33754,4.80114 -6.30971,8.44354 -7.23047,13.35157 -0.37968,2.0239 -1.39038,4.25775 -2.2461,4.96484 -1.39195,1.15018 -1.49643,0.48161 -0.98242,-6.34766 0.70645,-9.38614 2.33932,-12.70694 7.73633,-15.74023 1.89505,-1.06508 3.33275,-1.60773 4.27149,-1.69141 z m 51.38671,0.17578 c 1.08706,0.0539 2.62073,0.5374 4.45508,1.56836 5.27241,2.96326 6.93864,6.33643 7.62695,15.4375 0.30712,4.06093 0.32415,7.38477 0.0371,7.38477 -1.12611,0 -2.57019,-2.66533 -3.25,-6 -0.93019,-4.56286 -4.85876,-11.33909 -8.01562,-13.82227 -3.47616,-2.73434 -3.24504,-4.687 -0.85352,-4.56836 z m -38.36523,1.54493 c 1.53613,0.0731 3.14204,1.7007 6.43945,5.83593 2.62782,3.2955 5.47279,5.996 6.32227,6 0.84949,0.005 3.22979,-2.20009 5.28906,-4.90039 2.05927,-2.70029 4.38084,-5.43689 5.1582,-6.08203 1.46129,-1.21277 5.50782,-0.50968 5.50782,0.95703 0,0.45671 -2.40425,3.91291 -5.34375,7.68164 -2.9395,3.76873 -5.90595,7.91357 -6.5918,9.20899 -1.83151,3.45934 -0.60912,8.03903 5.14062,19.25781 4.35669,8.50067 5.09085,10.75974 5.18555,15.9707 0.0879,4.83783 -0.26622,6.34423 -1.74414,7.42774 -1.59723,1.17097 -2.4548,1.06828 -6.19336,-0.74805 l -4.33984,-2.10937 2.49023,-2.96094 c 1.37045,-1.62868 2.35412,-3.6774 2.18555,-4.55274 -0.71293,-3.70194 -8.82686,-5.01509 -12.44336,-2.01367 -1.95061,1.61886 -1.66459,3.33797 1.09961,6.62305 l 2.44336,2.9043 -4.33985,2.10937 c -3.73856,1.81633 -4.59612,1.91902 -6.19336,0.74805 -1.48296,-1.0872 -1.83248,-2.58958 -1.74218,-7.51172 0.0974,-5.30821 0.83715,-7.60153 5.38086,-16.67578 6.01189,-12.00637 6.96663,-12.0155 6.99023,-0.0742 0.014,7.07823 0.18899,7.75 2.01563,7.75 1.84373,0 2,-0.66775 2,-8.5332 0,-10.44056 -0.9733,-12.88184 -8.88282,-22.28125 -8.75824,-10.40799 -9.80577,-12.13642 -8.03711,-13.25586 0.82216,-0.52037 1.50489,-0.80862 2.20313,-0.77539 z m -8.26953,4.3457 3.20508,3.5 3.20312,3.5 -5.03125,0.61914 c -2.76732,0.34043 -6.01243,1.14374 -7.21094,1.78516 -3.48172,1.86336 -2.65682,-0.47934 1.82813,-5.19336 l 4.00586,-4.21094 z m 41.80664,0 3.17578,3 c 1.74679,1.65 3.60298,3.7875 4.125,4.75 0.90376,1.66635 -0.0868,2.4503 -1.41602,1.12109 -0.34541,-0.34542 -3.13603,-0.90792 -6.20312,-1.25 l -5.57813,-0.62109 2.94922,-3.5 2.94727,-3.5 z m -2.04883,11.94922 c 3.05357,0.0556 6.06143,0.79294 7.90625,2.19336 4.94699,3.75532 2.64846,9.8294 -5.90625,15.60742 -2.23935,1.5125 -4.65986,2.75 -5.37891,2.75 -1.89703,0 -6.49478,-8.34744 -7.10546,-12.90039 -0.46301,-3.45202 -0.19953,-4.11173 2.30078,-5.75 2.02972,-1.32993 5.13002,-1.95595 8.18359,-1.90039 z m -36.64258,0.58008 c 2.56427,0.0434 5.06525,0.53599 6.92188,1.49609 3.84044,1.98599 3.82568,4.79563 -0.0645,12.50195 -1.65791,3.28431 -3.6153,5.97266 -4.3496,5.97266 -1.93145,0 -9.13867,-5.06581 -11.4961,-8.08008 -1.10932,-1.41841 -2.3132,-3.76043 -2.67578,-5.20508 -0.56011,-2.23164 -0.15444,-2.93414 2.68945,-4.66797 2.27615,-1.38768 5.67769,-2.07332 8.97461,-2.01757 z m -3.14258,4.9707 c -4.96219,0 -4.5994,0.85884 2.32422,5.52148 6.0047,4.0438 6.68946,4.19022 6.68946,1.43164 0,-3.56473 -4.39356,-6.95312 -9.01368,-6.95312 z m 42.0918,0 c -4.68481,0 -9.07812,3.36374 -9.07812,6.95312 0,1.125 0.29776,2.04688 0.66211,2.04688 1.06832,0 10.07471,-5.97813 11.38476,-7.55664 1.01317,-1.22079 0.55226,-1.44336 -2.96875,-1.44336 z m -55.02734,5.71289 c 0.5647,-0.0773 1.31791,0.87515 3.05664,3.27539 2.54981,3.51991 9.77032,9.13698 13.22656,10.28906 0.7232,0.24107 0.75641,1.41587 0.10547,3.68555 l -0.95508,3.33203 -3.625,-4.39844 c -1.99333,-2.41894 -5.91696,-5.74648 -8.7207,-7.39648 -5.27453,-3.10405 -5.88287,-4.24186 -4.07227,-7.625 0.374,-0.69882 0.64556,-1.11573 0.98438,-1.16211 z m 67.91406,0.0996 c 0.35585,0.0261 0.62755,0.42387 0.99023,1.10156 1.74142,3.25388 1.21412,4.54158 -2.70507,6.60352 -2.0625,1.0851 -6.02378,4.30726 -8.80469,7.16015 l -5.05664,5.1875 -1.08008,-2.86132 c -1.0463,-2.77194 -0.90718,-2.96059 4.52344,-6.18165 3.08133,-1.82761 7.0589,-5.24407 8.83984,-7.59179 1.87284,-2.46886 2.69988,-3.46139 3.29297,-3.41797 z m -70.63477,10.71289 c 0.45331,-0.0357 1.0609,0.14631 1.82032,0.55273 3.77881,2.02236 9.94823,8.2333 12.49218,12.57422 1.39273,2.37651 2.38099,4.70636 2.19532,5.17774 -0.18566,0.47137 -3.56736,-1.10985 -7.51563,-3.51563 -6.08616,-3.70844 -7.43493,-5.04285 -8.85742,-8.76758 -1.46892,-3.8463 -1.4947,-5.91441 -0.13477,-6.02148 z m 73.29493,0.14844 c 1.35569,0.11387 1.36188,2.07298 -0.0879,5.86914 -1.43254,3.75105 -2.76069,5.04914 -9.10743,8.90234 -4.36694,2.65123 -7.42968,3.98245 -7.42968,3.22852 0,-1.90501 5.31113,-9.79309 8.61523,-12.79492 3.9475,-3.58637 6.65407,-5.31895 8.00977,-5.20508 z m -36.625,24.48828 c 0.72808,0 1.45617,0.27925 2.5,0.83789 1.375,0.73588 2.5,1.71091 2.5,2.16797 0,0.45706 -2.25,0.83203 -5,0.83203 -5.51228,0 -6.31213,-0.95981 -2.5,-3 1.04383,-0.55864 1.77191,-0.83789 2.5,-0.83789 z"
         style="fill:#ffffff"
         inkscape:connector-curvature="0" />
      <path
         inkscape:connector-curvature="0"
         style="fill:#ffffff;fill-opacity:0.64814812"
         d="m 384.55273,550.72852 c -2.5846,-0.0906 -5.19568,1.64548 -5.79492,4.05468 -0.3039,1.22163 -0.42353,18.90719 -0.26367,39.30078 l 0.29102,37.08008 2.70507,3.54492 c 2.44796,3.20817 14.32346,10.76977 30.29493,19.29102 7.913,4.22182 11.30065,3.4355 29.04101,-6.74805 9.60952,-5.51618 16.03194,-9.90172 17.95899,-12.25976 l 3,-3.66992 0.29101,-37.15821 c 0.15986,-20.43717 0.0421,-38.15923 -0.26172,-39.38086 -0.68484,-2.75337 -3.99945,-4.62749 -6.89648,-3.90039 -1.19982,0.30114 -5.75683,4.83835 -10.12695,10.08399 -4.37013,5.24563 -8.30493,9.53906 -8.74414,9.53906 -0.43923,0 -3.3279,-1.35 -6.41993,-3 -7.21198,-3.84852 -11.46966,-3.84852 -18.68164,0 -3.09203,1.65 -5.9807,3 -6.41992,3 -0.43922,0 -4.37401,-4.29343 -8.74414,-9.53906 -4.37012,-5.24564 -8.92713,-9.78285 -10.12695,-10.08399 -0.36213,-0.0909 -0.73234,-0.14136 -1.10157,-0.15429 z m 72.0918,5.0625 c 2.70557,0.90075 1.35319,4.13232 -4.88281,11.66992 -3.66007,4.424 -6.95326,8.03037 -7.31641,8.01367 -0.36314,-0.0167 -1.45564,-0.49262 -2.42773,-1.05859 -1.56841,-0.91316 -0.90741,-2.04182 5.85937,-10.01758 4.19401,-4.94333 8.1395,-8.81652 8.76758,-8.60742 z m -72.98242,0.25195 c 1.36483,-0.12664 3.98716,2.40843 9.04101,8.36523 7.05952,8.32079 7.48666,9.07668 5.67383,10.04688 -1.07823,0.57705 -2.17374,1.05078 -2.43554,1.05078 -1.32999,0 -13.74098,-16.31764 -13.47071,-17.71094 0.21077,-1.08657 0.57103,-1.69439 1.19141,-1.75195 z m -0.50977,12.46289 c 0.91193,0 8.13282,8.8597 8.13282,9.97852 0,0.35787 -1.6875,1.50857 -3.75,2.55859 -2.0625,1.05002 -4.0875,2.07184 -4.5,2.26953 -0.4125,0.19768 -0.75,-3.05377 -0.75,-7.22461 0,-4.17083 0.39075,-7.58203 0.86718,-7.58203 z m 74.26758,0 c 0.47643,0 0.86524,3.375 0.86524,7.5 0,4.125 -0.3375,7.45032 -0.75,7.39062 -1.32078,-0.19099 -8.2431,-4.36874 -8.2461,-4.97656 -0.005,-1.0692 7.24903,-9.91406 8.13086,-9.91406 z m -37.13476,1 c 2.66706,0 5.73818,0.93389 8.61718,2.62109 4.11081,2.4091 4.34822,2.75872 2.92969,4.32617 -1.32274,1.46161 -2.25895,1.55962 -6.54492,0.68165 -3.41423,-0.6994 -6.58772,-0.6994 -10.00195,0 -4.28597,0.87797 -5.22414,0.77996 -6.54688,-0.68165 -1.41853,-1.56746 -1.18112,-1.91707 2.92969,-4.32617 2.879,-1.6872 5.95013,-2.62109 8.61719,-2.62109 z m -17.48438,8 c 2.17044,0 2.5442,2.89766 0.51367,3.98437 -2.37278,1.26982 -2.75607,1.26606 -3.55664,-0.0293 -0.78395,-1.26846 1.28351,-3.95508 3.04297,-3.95508 z m 34.86719,0.15234 c 0.40628,0.0172 0.86103,0.15651 1.33984,0.45508 0.97816,0.60994 1.77735,1.69875 1.77735,2.41797 0,1.86346 -1.79505,2.21316 -3.77149,0.73633 -1.96473,-1.46809 -1.10627,-3.68406 0.6543,-3.60938 z m -17.38281,3.43946 c 2.07302,0 4.1459,0.22755 5.3125,0.68359 1.63491,0.63911 1.48784,1.10103 -1.5,4.69922 -1.82195,2.19413 -3.5375,3.98828 -3.8125,3.98828 -0.275,0 -1.99055,-1.79415 -3.8125,-3.98828 -2.98784,-3.59819 -3.13491,-4.06011 -1.5,-4.69922 1.16659,-0.45604 3.23947,-0.68359 5.3125,-0.68359 z m -25.73828,1.84179 c 2.06522,-0.18408 1.70842,1.85751 -1.54883,5.46289 -4.33754,4.80114 -6.30971,8.44354 -7.23047,13.35157 -0.37968,2.0239 -1.39038,4.25775 -2.2461,4.96484 -1.39195,1.15018 -1.49643,0.48161 -0.98242,-6.34766 0.70645,-9.38614 2.33932,-12.70694 7.73633,-15.74023 1.89505,-1.06508 3.33275,-1.60773 4.27149,-1.69141 z m 51.38671,0.17578 c 1.08706,0.0539 2.62073,0.5374 4.45508,1.56836 5.27241,2.96326 6.93864,6.33643 7.62695,15.4375 0.30712,4.06093 0.32415,7.38477 0.0371,7.38477 -1.12611,0 -2.57019,-2.66533 -3.25,-6 -0.93019,-4.56286 -4.85876,-11.33909 -8.01562,-13.82227 -3.47616,-2.73434 -3.24504,-4.687 -0.85352,-4.56836 z m -38.36523,1.54493 c 1.53613,0.0731 3.14204,1.7007 6.43945,5.83593 2.62782,3.2955 5.47279,5.996 6.32227,6 0.84949,0.005 3.22979,-2.20009 5.28906,-4.90039 2.05927,-2.70029 4.38084,-5.43689 5.1582,-6.08203 1.46129,-1.21277 5.50782,-0.50968 5.50782,0.95703 0,0.45671 -2.40425,3.91291 -5.34375,7.68164 -2.9395,3.76873 -5.90595,7.91357 -6.5918,9.20899 -1.83151,3.45934 -0.60912,8.03903 5.14062,19.25781 4.35669,8.50067 5.09085,10.75974 5.18555,15.9707 0.0879,4.83783 -0.26622,6.34423 -1.74414,7.42774 -1.59723,1.17097 -2.4548,1.06828 -6.19336,-0.74805 l -4.33984,-2.10937 2.49023,-2.96094 c 1.37045,-1.62868 2.35412,-3.6774 2.18555,-4.55274 -0.71293,-3.70194 -8.82686,-5.01509 -12.44336,-2.01367 -1.95061,1.61886 -1.66459,3.33797 1.09961,6.62305 l 2.44336,2.9043 -4.33985,2.10937 c -3.73856,1.81633 -4.59612,1.91902 -6.19336,0.74805 -1.48296,-1.0872 -1.83248,-2.58958 -1.74218,-7.51172 0.0974,-5.30821 0.83715,-7.60153 5.38086,-16.67578 6.01189,-12.00637 6.96663,-12.0155 6.99023,-0.0742 0.014,7.07823 0.18899,7.75 2.01563,7.75 1.84373,0 2,-0.66775 2,-8.5332 0,-10.44056 -0.9733,-12.88184 -8.88282,-22.28125 -8.75824,-10.40799 -9.80577,-12.13642 -8.03711,-13.25586 0.82216,-0.52037 1.50489,-0.80862 2.20313,-0.77539 z m -8.26953,4.3457 3.20508,3.5 3.20312,3.5 -5.03125,0.61914 c -2.76732,0.34043 -6.01243,1.14374 -7.21094,1.78516 -3.48172,1.86336 -2.65682,-0.47934 1.82813,-5.19336 l 4.00586,-4.21094 z m 41.80664,0 3.17578,3 c 1.74679,1.65 3.60298,3.7875 4.125,4.75 0.90376,1.66635 -0.0868,2.4503 -1.41602,1.12109 -0.34541,-0.34542 -3.13603,-0.90792 -6.20312,-1.25 l -5.57813,-0.62109 2.94922,-3.5 2.94727,-3.5 z m -2.04883,11.94922 c 3.05357,0.0556 6.06143,0.79294 7.90625,2.19336 4.94699,3.75532 2.64846,9.8294 -5.90625,15.60742 -2.23935,1.5125 -4.65986,2.75 -5.37891,2.75 -1.89703,0 -6.49478,-8.34744 -7.10546,-12.90039 -0.46301,-3.45202 -0.19953,-4.11173 2.30078,-5.75 2.02972,-1.32993 5.13002,-1.95595 8.18359,-1.90039 z m -36.64258,0.58008 c 2.56427,0.0434 5.06525,0.53599 6.92188,1.49609 3.84044,1.98599 3.82568,4.79563 -0.0645,12.50195 -1.65791,3.28431 -3.6153,5.97266 -4.3496,5.97266 -1.93145,0 -9.13867,-5.06581 -11.4961,-8.08008 -1.10932,-1.41841 -2.3132,-3.76043 -2.67578,-5.20508 -0.56011,-2.23164 -0.15444,-2.93414 2.68945,-4.66797 2.27615,-1.38768 5.67769,-2.07332 8.97461,-2.01757 z m -3.14258,4.9707 c -4.96219,0 -4.5994,0.85884 2.32422,5.52148 6.0047,4.0438 6.68946,4.19022 6.68946,1.43164 0,-3.56473 -4.39356,-6.95312 -9.01368,-6.95312 z m 42.0918,0 c -4.68481,0 -9.07812,3.36374 -9.07812,6.95312 0,1.125 0.29776,2.04688 0.66211,2.04688 1.06832,0 10.07471,-5.97813 11.38476,-7.55664 1.01317,-1.22079 0.55226,-1.44336 -2.96875,-1.44336 z m -55.02734,5.71289 c 0.5647,-0.0773 1.31791,0.87515 3.05664,3.27539 2.54981,3.51991 9.77032,9.13698 13.22656,10.28906 0.7232,0.24107 0.75641,1.41587 0.10547,3.68555 l -0.95508,3.33203 -3.625,-4.39844 c -1.99333,-2.41894 -5.91696,-5.74648 -8.7207,-7.39648 -5.27453,-3.10405 -5.88287,-4.24186 -4.07227,-7.625 0.374,-0.69882 0.64556,-1.11573 0.98438,-1.16211 z m 67.91406,0.0996 c 0.35585,0.0261 0.62755,0.42387 0.99023,1.10156 1.74142,3.25388 1.21412,4.54158 -2.70507,6.60352 -2.0625,1.0851 -6.02378,4.30726 -8.80469,7.16015 l -5.05664,5.1875 -1.08008,-2.86132 c -1.0463,-2.77194 -0.90718,-2.96059 4.52344,-6.18165 3.08133,-1.82761 7.0589,-5.24407 8.83984,-7.59179 1.87284,-2.46886 2.69988,-3.46139 3.29297,-3.41797 z m -70.63477,10.71289 c 0.45331,-0.0357 1.0609,0.14631 1.82032,0.55273 3.77881,2.02236 9.94823,8.2333 12.49218,12.57422 1.39273,2.37651 2.38099,4.70636 2.19532,5.17774 -0.18566,0.47137 -3.56736,-1.10985 -7.51563,-3.51563 -6.08616,-3.70844 -7.43493,-5.04285 -8.85742,-8.76758 -1.46892,-3.8463 -1.4947,-5.91441 -0.13477,-6.02148 z m 73.29493,0.14844 c 1.35569,0.11387 1.36188,2.07298 -0.0879,5.86914 -1.43254,3.75105 -2.76069,5.04914 -9.10743,8.90234 -4.36694,2.65123 -7.42968,3.98245 -7.42968,3.22852 0,-1.90501 5.31113,-9.79309 8.61523,-12.79492 3.9475,-3.58637 6.65407,-5.31895 8.00977,-5.20508 z m -36.625,24.48828 c 0.72808,0 1.45617,0.27925 2.5,0.83789 1.375,0.73588 2.5,1.71091 2.5,2.16797 0,0.45706 -2.25,0.83203 -5,0.83203 -5.51228,0 -6.31213,-0.95981 -2.5,-3 1.04383,-0.55864 1.77191,-0.83789 2.5,-0.83789 z"
         id="path4168" />
    </g>
    <g
       id="g4747"
       inkscape:export-xdpi="90"
       inkscape:export-ydpi="90">
      <rect
         style="fill:#60bff3;fill-opacity:1;stroke:none;stroke-width:1;stroke-linecap:round;stroke-linejoin:round;stroke-miterlimit:4;stroke-dasharray:none"
         id="rect4170"
         width="113.92857"
         height="126.78571"
         x="507.85715"
         y="536.64789"
         ry="5.0507598" />
      <path
         id="path4174"
         d="m 534.55273,550.72852 c -2.5846,-0.0906 -5.19568,1.64548 -5.79492,4.05468 -0.3039,1.22163 -0.42353,18.90719 -0.26367,39.30078 l 0.29102,37.08008 2.70507,3.54492 c 2.44796,3.20817 14.32346,10.76977 30.29493,19.29102 7.913,4.22182 11.30065,3.4355 29.04101,-6.74805 9.60952,-5.51618 16.03194,-9.90172 17.95899,-12.25976 l 3,-3.66992 0.29101,-37.15821 c 0.15986,-20.43717 0.0421,-38.15923 -0.26172,-39.38086 -0.68484,-2.75337 -3.99945,-4.62749 -6.89648,-3.90039 -1.19982,0.30114 -5.75683,4.83835 -10.12695,10.08399 -4.37013,5.24563 -8.30493,9.53906 -8.74414,9.53906 -0.43923,0 -3.3279,-1.35 -6.41993,-3 -7.21198,-3.84852 -11.46966,-3.84852 -18.68164,0 -3.09203,1.65 -5.9807,3 -6.41992,3 -0.43922,0 -4.37401,-4.29343 -8.74414,-9.53906 -4.37012,-5.24564 -8.92713,-9.78285 -10.12695,-10.08399 -0.36213,-0.0909 -0.73234,-0.14136 -1.10157,-0.15429 z m 72.0918,5.0625 c 2.70557,0.90075 1.35319,4.13232 -4.88281,11.66992 -3.66007,4.424 -6.95326,8.03037 -7.31641,8.01367 -0.36314,-0.0167 -1.45564,-0.49262 -2.42773,-1.05859 -1.56841,-0.91316 -0.90741,-2.04182 5.85937,-10.01758 4.19401,-4.94333 8.1395,-8.81652 8.76758,-8.60742 z m -72.98242,0.25195 c 1.36483,-0.12664 3.98716,2.40843 9.04101,8.36523 7.05952,8.32079 7.48666,9.07668 5.67383,10.04688 -1.07823,0.57705 -2.17374,1.05078 -2.43554,1.05078 -1.32999,0 -13.74098,-16.31764 -13.47071,-17.71094 0.21077,-1.08657 0.57103,-1.69439 1.19141,-1.75195 z m -0.50977,12.46289 c 0.91193,0 8.13282,8.8597 8.13282,9.97852 0,0.35787 -1.6875,1.50857 -3.75,2.55859 -2.0625,1.05002 -4.0875,2.07184 -4.5,2.26953 -0.4125,0.19768 -0.75,-3.05377 -0.75,-7.22461 0,-4.17083 0.39075,-7.58203 0.86718,-7.58203 z m 74.26758,0 c 0.47643,0 0.86524,3.375 0.86524,7.5 0,4.125 -0.3375,7.45032 -0.75,7.39062 -1.32078,-0.19099 -8.2431,-4.36874 -8.2461,-4.97656 -0.005,-1.0692 7.24903,-9.91406 8.13086,-9.91406 z m -37.13476,1 c 2.66706,0 5.73818,0.93389 8.61718,2.62109 4.11081,2.4091 4.34822,2.75872 2.92969,4.32617 -1.32274,1.46161 -2.25895,1.55962 -6.54492,0.68165 -3.41423,-0.6994 -6.58772,-0.6994 -10.00195,0 -4.28597,0.87797 -5.22414,0.77996 -6.54688,-0.68165 -1.41853,-1.56746 -1.18112,-1.91707 2.92969,-4.32617 2.879,-1.6872 5.95013,-2.62109 8.61719,-2.62109 z m -17.48438,8 c 2.17044,0 2.5442,2.89766 0.51367,3.98437 -2.37278,1.26982 -2.75607,1.26606 -3.55664,-0.0293 -0.78395,-1.26846 1.28351,-3.95508 3.04297,-3.95508 z m 34.86719,0.15234 c 0.40628,0.0172 0.86103,0.15651 1.33984,0.45508 0.97816,0.60994 1.77735,1.69875 1.77735,2.41797 0,1.86346 -1.79505,2.21316 -3.77149,0.73633 -1.96473,-1.46809 -1.10627,-3.68406 0.6543,-3.60938 z m -17.38281,3.43946 c 2.07302,0 4.1459,0.22755 5.3125,0.68359 1.63491,0.63911 1.48784,1.10103 -1.5,4.69922 -1.82195,2.19413 -3.5375,3.98828 -3.8125,3.98828 -0.275,0 -1.99055,-1.79415 -3.8125,-3.98828 -2.98784,-3.59819 -3.13491,-4.06011 -1.5,-4.69922 1.16659,-0.45604 3.23947,-0.68359 5.3125,-0.68359 z m -25.73828,1.84179 c 2.06522,-0.18408 1.70842,1.85751 -1.54883,5.46289 -4.33754,4.80114 -6.30971,8.44354 -7.23047,13.35157 -0.37968,2.0239 -1.39038,4.25775 -2.2461,4.96484 -1.39195,1.15018 -1.49643,0.48161 -0.98242,-6.34766 0.70645,-9.38614 2.33932,-12.70694 7.73633,-15.74023 1.89505,-1.06508 3.33275,-1.60773 4.27149,-1.69141 z m 51.38671,0.17578 c 1.08706,0.0539 2.62073,0.5374 4.45508,1.56836 5.27241,2.96326 6.93864,6.33643 7.62695,15.4375 0.30712,4.06093 0.32415,7.38477 0.0371,7.38477 -1.12611,0 -2.57019,-2.66533 -3.25,-6 -0.93019,-4.56286 -4.85876,-11.33909 -8.01562,-13.82227 -3.47616,-2.73434 -3.24504,-4.687 -0.85352,-4.56836 z m -38.36523,1.54493 c 1.53613,0.0731 3.14204,1.7007 6.43945,5.83593 2.62782,3.2955 5.47279,5.996 6.32227,6 0.84949,0.005 3.22979,-2.20009 5.28906,-4.90039 2.05927,-2.70029 4.38084,-5.43689 5.1582,-6.08203 1.46129,-1.21277 5.50782,-0.50968 5.50782,0.95703 0,0.45671 -2.40425,3.91291 -5.34375,7.68164 -2.9395,3.76873 -5.90595,7.91357 -6.5918,9.20899 -1.83151,3.45934 -0.60912,8.03903 5.14062,19.25781 4.35669,8.50067 5.09085,10.75974 5.18555,15.9707 0.0879,4.83783 -0.26622,6.34423 -1.74414,7.42774 -1.59723,1.17097 -2.4548,1.06828 -6.19336,-0.74805 l -4.33984,-2.10937 2.49023,-2.96094 c 1.37045,-1.62868 2.35412,-3.6774 2.18555,-4.55274 -0.71293,-3.70194 -8.82686,-5.01509 -12.44336,-2.01367 -1.95061,1.61886 -1.66459,3.33797 1.09961,6.62305 l 2.44336,2.9043 -4.33985,2.10937 c -3.73856,1.81633 -4.59612,1.91902 -6.19336,0.74805 -1.48296,-1.0872 -1.83248,-2.58958 -1.74218,-7.51172 0.0974,-5.30821 0.83715,-7.60153 5.38086,-16.67578 6.01189,-12.00637 6.96663,-12.0155 6.99023,-0.0742 0.014,7.07823 0.18899,7.75 2.01563,7.75 1.84373,0 2,-0.66775 2,-8.5332 0,-10.44056 -0.9733,-12.88184 -8.88282,-22.28125 -8.75824,-10.40799 -9.80577,-12.13642 -8.03711,-13.25586 0.82216,-0.52037 1.50489,-0.80862 2.20313,-0.77539 z m -8.26953,4.3457 3.20508,3.5 3.20312,3.5 -5.03125,0.61914 c -2.76732,0.34043 -6.01243,1.14374 -7.21094,1.78516 -3.48172,1.86336 -2.65682,-0.47934 1.82813,-5.19336 l 4.00586,-4.21094 z m 41.80664,0 3.17578,3 c 1.74679,1.65 3.60298,3.7875 4.125,4.75 0.90376,1.66635 -0.0868,2.4503 -1.41602,1.12109 -0.34541,-0.34542 -3.13603,-0.90792 -6.20312,-1.25 l -5.57813,-0.62109 2.94922,-3.5 2.94727,-3.5 z m -2.04883,11.94922 c 3.05357,0.0556 6.06143,0.79294 7.90625,2.19336 4.94699,3.75532 2.64846,9.8294 -5.90625,15.60742 -2.23935,1.5125 -4.65986,2.75 -5.37891,2.75 -1.89703,0 -6.49478,-8.34744 -7.10546,-12.90039 -0.46301,-3.45202 -0.19953,-4.11173 2.30078,-5.75 2.02972,-1.32993 5.13002,-1.95595 8.18359,-1.90039 z m -36.64258,0.58008 c 2.56427,0.0434 5.06525,0.53599 6.92188,1.49609 3.84044,1.98599 3.82568,4.79563 -0.0645,12.50195 -1.65791,3.28431 -3.6153,5.97266 -4.3496,5.97266 -1.93145,0 -9.13867,-5.06581 -11.4961,-8.08008 -1.10932,-1.41841 -2.3132,-3.76043 -2.67578,-5.20508 -0.56011,-2.23164 -0.15444,-2.93414 2.68945,-4.66797 2.27615,-1.38768 5.67769,-2.07332 8.97461,-2.01757 z m -3.14258,4.9707 c -4.96219,0 -4.5994,0.85884 2.32422,5.52148 6.0047,4.0438 6.68946,4.19022 6.68946,1.43164 0,-3.56473 -4.39356,-6.95312 -9.01368,-6.95312 z m 42.0918,0 c -4.68481,0 -9.07812,3.36374 -9.07812,6.95312 0,1.125 0.29776,2.04688 0.66211,2.04688 1.06832,0 10.07471,-5.97813 11.38476,-7.55664 1.01317,-1.22079 0.55226,-1.44336 -2.96875,-1.44336 z m -55.02734,5.71289 c 0.5647,-0.0773 1.31791,0.87515 3.05664,3.27539 2.54981,3.51991 9.77032,9.13698 13.22656,10.28906 0.7232,0.24107 0.75641,1.41587 0.10547,3.68555 l -0.95508,3.33203 -3.625,-4.39844 c -1.99333,-2.41894 -5.91696,-5.74648 -8.7207,-7.39648 -5.27453,-3.10405 -5.88287,-4.24186 -4.07227,-7.625 0.374,-0.69882 0.64556,-1.11573 0.98438,-1.16211 z m 67.91406,0.0996 c 0.35585,0.0261 0.62755,0.42387 0.99023,1.10156 1.74142,3.25388 1.21412,4.54158 -2.70507,6.60352 -2.0625,1.0851 -6.02378,4.30726 -8.80469,7.16015 l -5.05664,5.1875 -1.08008,-2.86132 c -1.0463,-2.77194 -0.90718,-2.96059 4.52344,-6.18165 3.08133,-1.82761 7.0589,-5.24407 8.83984,-7.59179 1.87284,-2.46886 2.69988,-3.46139 3.29297,-3.41797 z m -70.63477,10.71289 c 0.45331,-0.0357 1.0609,0.14631 1.82032,0.55273 3.77881,2.02236 9.94823,8.2333 12.49218,12.57422 1.39273,2.37651 2.38099,4.70636 2.19532,5.17774 -0.18566,0.47137 -3.56736,-1.10985 -7.51563,-3.51563 -6.08616,-3.70844 -7.43493,-5.04285 -8.85742,-8.76758 -1.46892,-3.8463 -1.4947,-5.91441 -0.13477,-6.02148 z m 73.29493,0.14844 c 1.35569,0.11387 1.36188,2.07298 -0.0879,5.86914 -1.43254,3.75105 -2.76069,5.04914 -9.10743,8.90234 -4.36694,2.65123 -7.42968,3.98245 -7.42968,3.22852 0,-1.90501 5.31113,-9.79309 8.61523,-12.79492 3.9475,-3.58637 6.65407,-5.31895 8.00977,-5.20508 z m -36.625,24.48828 c 0.72808,0 1.45617,0.27925 2.5,0.83789 1.375,0.73588 2.5,1.71091 2.5,2.16797 0,0.45706 -2.25,0.83203 -5,0.83203 -5.51228,0 -6.31213,-0.95981 -2.5,-3 1.04383,-0.55864 1.77191,-0.83789 2.5,-0.83789 z"
         style="fill:#000000;fill-opacity:0.64814812"
         inkscape:connector-curvature="0" />
      <path
         inkscape:connector-curvature="0"
         style="fill:#ffffff"
         d="m 528.55273,546.72852 c -2.5846,-0.0906 -5.19568,1.64548 -5.79492,4.05468 -0.3039,1.22163 -0.42353,18.90719 -0.26367,39.30078 l 0.29102,37.08008 2.70507,3.54492 c 2.44796,3.20817 14.32346,10.76977 30.29493,19.29102 7.913,4.22182 11.30065,3.4355 29.04101,-6.74805 9.60952,-5.51618 16.03194,-9.90172 17.95899,-12.25976 l 3,-3.66992 0.29101,-37.15821 c 0.15986,-20.43717 0.0421,-38.15923 -0.26172,-39.38086 -0.68484,-2.75337 -3.99945,-4.62749 -6.89648,-3.90039 -1.19982,0.30114 -5.75683,4.83835 -10.12695,10.08399 -4.37013,5.24563 -8.30493,9.53906 -8.74414,9.53906 -0.43923,0 -3.3279,-1.35 -6.41993,-3 -7.21198,-3.84852 -11.46966,-3.84852 -18.68164,0 -3.09203,1.65 -5.9807,3 -6.41992,3 -0.43922,0 -4.37401,-4.29343 -8.74414,-9.53906 -4.37012,-5.24564 -8.92713,-9.78285 -10.12695,-10.08399 -0.36213,-0.0909 -0.73234,-0.14136 -1.10157,-0.15429 z m 72.0918,5.0625 c 2.70557,0.90075 1.35319,4.13232 -4.88281,11.66992 -3.66007,4.424 -6.95326,8.03037 -7.31641,8.01367 -0.36314,-0.0167 -1.45564,-0.49262 -2.42773,-1.05859 -1.56841,-0.91316 -0.90741,-2.04182 5.85937,-10.01758 4.19401,-4.94333 8.1395,-8.81652 8.76758,-8.60742 z m -72.98242,0.25195 c 1.36483,-0.12664 3.98716,2.40843 9.04101,8.36523 7.05952,8.32079 7.48666,9.07668 5.67383,10.04688 -1.07823,0.57705 -2.17374,1.05078 -2.43554,1.05078 -1.32999,0 -13.74098,-16.31764 -13.47071,-17.71094 0.21077,-1.08657 0.57103,-1.69439 1.19141,-1.75195 z m -0.50977,12.46289 c 0.91193,0 8.13282,8.8597 8.13282,9.97852 0,0.35787 -1.6875,1.50857 -3.75,2.55859 -2.0625,1.05002 -4.0875,2.07184 -4.5,2.26953 -0.4125,0.19768 -0.75,-3.05377 -0.75,-7.22461 0,-4.17083 0.39075,-7.58203 0.86718,-7.58203 z m 74.26758,0 c 0.47643,0 0.86524,3.375 0.86524,7.5 0,4.125 -0.3375,7.45032 -0.75,7.39062 -1.32078,-0.19099 -8.2431,-4.36874 -8.2461,-4.97656 -0.005,-1.0692 7.24903,-9.91406 8.13086,-9.91406 z m -37.13476,1 c 2.66706,0 5.73818,0.93389 8.61718,2.62109 4.11081,2.4091 4.34822,2.75872 2.92969,4.32617 -1.32274,1.46161 -2.25895,1.55962 -6.54492,0.68165 -3.41423,-0.6994 -6.58772,-0.6994 -10.00195,0 -4.28597,0.87797 -5.22414,0.77996 -6.54688,-0.68165 -1.41853,-1.56746 -1.18112,-1.91707 2.92969,-4.32617 2.879,-1.6872 5.95013,-2.62109 8.61719,-2.62109 z m -17.48438,8 c 2.17044,0 2.5442,2.89766 0.51367,3.98437 -2.37278,1.26982 -2.75607,1.26606 -3.55664,-0.0293 -0.78395,-1.26846 1.28351,-3.95508 3.04297,-3.95508 z m 34.86719,0.15234 c 0.40628,0.0172 0.86103,0.15651 1.33984,0.45508 0.97816,0.60994 1.77735,1.69875 1.77735,2.41797 0,1.86346 -1.79505,2.21316 -3.77149,0.73633 -1.96473,-1.46809 -1.10627,-3.68406 0.6543,-3.60938 z m -17.38281,3.43946 c 2.07302,0 4.1459,0.22755 5.3125,0.68359 1.63491,0.63911 1.48784,1.10103 -1.5,4.69922 -1.82195,2.19413 -3.5375,3.98828 -3.8125,3.98828 -0.275,0 -1.99055,-1.79415 -3.8125,-3.98828 -2.98784,-3.59819 -3.13491,-4.06011 -1.5,-4.69922 1.16659,-0.45604 3.23947,-0.68359 5.3125,-0.68359 z m -25.73828,1.84179 c 2.06522,-0.18408 1.70842,1.85751 -1.54883,5.46289 -4.33754,4.80114 -6.30971,8.44354 -7.23047,13.35157 -0.37968,2.0239 -1.39038,4.25775 -2.2461,4.96484 -1.39195,1.15018 -1.49643,0.48161 -0.98242,-6.34766 0.70645,-9.38614 2.33932,-12.70694 7.73633,-15.74023 1.89505,-1.06508 3.33275,-1.60773 4.27149,-1.69141 z m 51.38671,0.17578 c 1.08706,0.0539 2.62073,0.5374 4.45508,1.56836 5.27241,2.96326 6.93864,6.33643 7.62695,15.4375 0.30712,4.06093 0.32415,7.38477 0.0371,7.38477 -1.12611,0 -2.57019,-2.66533 -3.25,-6 -0.93019,-4.56286 -4.85876,-11.33909 -8.01562,-13.82227 -3.47616,-2.73434 -3.24504,-4.687 -0.85352,-4.56836 z m -38.36523,1.54493 c 1.53613,0.0731 3.14204,1.7007 6.43945,5.83593 2.62782,3.2955 5.47279,5.996 6.32227,6 0.84949,0.005 3.22979,-2.20009 5.28906,-4.90039 2.05927,-2.70029 4.38084,-5.43689 5.1582,-6.08203 1.46129,-1.21277 5.50782,-0.50968 5.50782,0.95703 0,0.45671 -2.40425,3.91291 -5.34375,7.68164 -2.9395,3.76873 -5.90595,7.91357 -6.5918,9.20899 -1.83151,3.45934 -0.60912,8.03903 5.14062,19.25781 4.35669,8.50067 5.09085,10.75974 5.18555,15.9707 0.0879,4.83783 -0.26622,6.34423 -1.74414,7.42774 -1.59723,1.17097 -2.4548,1.06828 -6.19336,-0.74805 l -4.33984,-2.10937 2.49023,-2.96094 c 1.37045,-1.62868 2.35412,-3.6774 2.18555,-4.55274 -0.71293,-3.70194 -8.82686,-5.01509 -12.44336,-2.01367 -1.95061,1.61886 -1.66459,3.33797 1.09961,6.62305 l 2.44336,2.9043 -4.33985,2.10937 c -3.73856,1.81633 -4.59612,1.91902 -6.19336,0.74805 -1.48296,-1.0872 -1.83248,-2.58958 -1.74218,-7.51172 0.0974,-5.30821 0.83715,-7.60153 5.38086,-16.67578 6.01189,-12.00637 6.96663,-12.0155 6.99023,-0.0742 0.014,7.07823 0.18899,7.75 2.01563,7.75 1.84373,0 2,-0.66775 2,-8.5332 0,-10.44056 -0.9733,-12.88184 -8.88282,-22.28125 -8.75824,-10.40799 -9.80577,-12.13642 -8.03711,-13.25586 0.82216,-0.52037 1.50489,-0.80862 2.20313,-0.77539 z m -8.26953,4.3457 3.20508,3.5 3.20312,3.5 -5.03125,0.61914 c -2.76732,0.34043 -6.01243,1.14374 -7.21094,1.78516 -3.48172,1.86336 -2.65682,-0.47934 1.82813,-5.19336 l 4.00586,-4.21094 z m 41.80664,0 3.17578,3 c 1.74679,1.65 3.60298,3.7875 4.125,4.75 0.90376,1.66635 -0.0868,2.4503 -1.41602,1.12109 -0.34541,-0.34542 -3.13603,-0.90792 -6.20312,-1.25 l -5.57813,-0.62109 2.94922,-3.5 2.94727,-3.5 z m -2.04883,11.94922 c 3.05357,0.0556 6.06143,0.79294 7.90625,2.19336 4.94699,3.75532 2.64846,9.8294 -5.90625,15.60742 -2.23935,1.5125 -4.65986,2.75 -5.37891,2.75 -1.89703,0 -6.49478,-8.34744 -7.10546,-12.90039 -0.46301,-3.45202 -0.19953,-4.11173 2.30078,-5.75 2.02972,-1.32993 5.13002,-1.95595 8.18359,-1.90039 z m -36.64258,0.58008 c 2.56427,0.0434 5.06525,0.53599 6.92188,1.49609 3.84044,1.98599 3.82568,4.79563 -0.0645,12.50195 -1.65791,3.28431 -3.6153,5.97266 -4.3496,5.97266 -1.93145,0 -9.13867,-5.06581 -11.4961,-8.08008 -1.10932,-1.41841 -2.3132,-3.76043 -2.67578,-5.20508 -0.56011,-2.23164 -0.15444,-2.93414 2.68945,-4.66797 2.27615,-1.38768 5.67769,-2.07332 8.97461,-2.01757 z m -3.14258,4.9707 c -4.96219,0 -4.5994,0.85884 2.32422,5.52148 6.0047,4.0438 6.68946,4.19022 6.68946,1.43164 0,-3.56473 -4.39356,-6.95312 -9.01368,-6.95312 z m 42.0918,0 c -4.68481,0 -9.07812,3.36374 -9.07812,6.95312 0,1.125 0.29776,2.04688 0.66211,2.04688 1.06832,0 10.07471,-5.97813 11.38476,-7.55664 1.01317,-1.22079 0.55226,-1.44336 -2.96875,-1.44336 z m -55.02734,5.71289 c 0.5647,-0.0773 1.31791,0.87515 3.05664,3.27539 2.54981,3.51991 9.77032,9.13698 13.22656,10.28906 0.7232,0.24107 0.75641,1.41587 0.10547,3.68555 l -0.95508,3.33203 -3.625,-4.39844 c -1.99333,-2.41894 -5.91696,-5.74648 -8.7207,-7.39648 -5.27453,-3.10405 -5.88287,-4.24186 -4.07227,-7.625 0.374,-0.69882 0.64556,-1.11573 0.98438,-1.16211 z m 67.91406,0.0996 c 0.35585,0.0261 0.62755,0.42387 0.99023,1.10156 1.74142,3.25388 1.21412,4.54158 -2.70507,6.60352 -2.0625,1.0851 -6.02378,4.30726 -8.80469,7.16015 l -5.05664,5.1875 -1.08008,-2.86132 c -1.0463,-2.77194 -0.90718,-2.96059 4.52344,-6.18165 3.08133,-1.82761 7.0589,-5.24407 8.83984,-7.59179 1.87284,-2.46886 2.69988,-3.46139 3.29297,-3.41797 z m -70.63477,10.71289 c 0.45331,-0.0357 1.0609,0.14631 1.82032,0.55273 3.77881,2.02236 9.94823,8.2333 12.49218,12.57422 1.39273,2.37651 2.38099,4.70636 2.19532,5.17774 -0.18566,0.47137 -3.56736,-1.10985 -7.51563,-3.51563 -6.08616,-3.70844 -7.43493,-5.04285 -8.85742,-8.76758 -1.46892,-3.8463 -1.4947,-5.91441 -0.13477,-6.02148 z m 73.29493,0.14844 c 1.35569,0.11387 1.36188,2.07298 -0.0879,5.86914 -1.43254,3.75105 -2.76069,5.04914 -9.10743,8.90234 -4.36694,2.65123 -7.42968,3.98245 -7.42968,3.22852 0,-1.90501 5.31113,-9.79309 8.61523,-12.79492 3.9475,-3.58637 6.65407,-5.31895 8.00977,-5.20508 z m -36.625,24.48828 c 0.72808,0 1.45617,0.27925 2.5,0.83789 1.375,0.73588 2.5,1.71091 2.5,2.16797 0,0.45706 -2.25,0.83203 -5,0.83203 -5.51228,0 -6.31213,-0.95981 -2.5,-3 1.04383,-0.55864 1.77191,-0.83789 2.5,-0.83789 z"
         id="path4172" />
    </g>
    <g
       id="g4742"
       inkscape:export-xdpi="90"
       inkscape:export-ydpi="90">
      <rect
         ry="5.0507598"
         y="674.64789"
         x="355.85715"
         height="126.78571"
         width="113.92857"
         id="rect4300"
         style="fill:#60bff3;fill-opacity:1;stroke:none;stroke-width:1;stroke-linecap:round;stroke-linejoin:round;stroke-miterlimit:4;stroke-dasharray:none" />
      <path
         inkscape:connector-curvature="0"
         style="opacity:0.869;fill:#000000;fill-opacity:0.64814812;filter:url(#filter4738)"
         d="m 382.55273,688.72852 c -2.5846,-0.0906 -5.19568,1.64548 -5.79492,4.05468 -0.3039,1.22163 -0.42353,18.90719 -0.26367,39.30078 l 0.29102,37.08008 2.70507,3.54492 c 2.44796,3.20817 14.32346,10.76977 30.29493,19.29102 7.913,4.22182 11.30065,3.4355 29.04101,-6.74805 9.60952,-5.51618 16.03194,-9.90172 17.95899,-12.25976 l 3,-3.66992 0.29101,-37.15821 c 0.15986,-20.43717 0.0421,-38.15923 -0.26172,-39.38086 -0.68484,-2.75337 -3.99945,-4.62749 -6.89648,-3.90039 -1.19982,0.30114 -5.75683,4.83835 -10.12695,10.08399 -4.37013,5.24563 -8.30493,9.53906 -8.74414,9.53906 -0.43923,0 -3.3279,-1.35 -6.41993,-3 -7.21198,-3.84852 -11.46966,-3.84852 -18.68164,0 -3.09203,1.65 -5.9807,3 -6.41992,3 -0.43922,0 -4.37401,-4.29343 -8.74414,-9.53906 -4.37012,-5.24564 -8.92713,-9.78285 -10.12695,-10.08399 -0.36213,-0.0909 -0.73234,-0.14136 -1.10157,-0.15429 z m 72.0918,5.0625 c 2.70557,0.90075 1.35319,4.13232 -4.88281,11.66992 -3.66007,4.424 -6.95326,8.03037 -7.31641,8.01367 -0.36314,-0.0167 -1.45564,-0.49262 -2.42773,-1.05859 -1.56841,-0.91316 -0.90741,-2.04182 5.85937,-10.01758 4.19401,-4.94333 8.1395,-8.81652 8.76758,-8.60742 z m -72.98242,0.25195 c 1.36483,-0.12664 3.98716,2.40843 9.04101,8.36523 7.05952,8.32079 7.48666,9.07668 5.67383,10.04688 -1.07823,0.57705 -2.17374,1.05078 -2.43554,1.05078 -1.32999,0 -13.74098,-16.31764 -13.47071,-17.71094 0.21077,-1.08657 0.57103,-1.69439 1.19141,-1.75195 z m -0.50977,12.46289 c 0.91193,0 8.13282,8.8597 8.13282,9.97852 0,0.35787 -1.6875,1.50857 -3.75,2.55859 -2.0625,1.05002 -4.0875,2.07184 -4.5,2.26953 -0.4125,0.19768 -0.75,-3.05377 -0.75,-7.22461 0,-4.17083 0.39075,-7.58203 0.86718,-7.58203 z m 74.26758,0 c 0.47643,0 0.86524,3.375 0.86524,7.5 0,4.125 -0.3375,7.45032 -0.75,7.39062 -1.32078,-0.19099 -8.2431,-4.36874 -8.2461,-4.97656 -0.005,-1.0692 7.24903,-9.91406 8.13086,-9.91406 z m -37.13476,1 c 2.66706,0 5.73818,0.93389 8.61718,2.62109 4.11081,2.4091 4.34822,2.75872 2.92969,4.32617 -1.32274,1.46161 -2.25895,1.55962 -6.54492,0.68165 -3.41423,-0.6994 -6.58772,-0.6994 -10.00195,0 -4.28597,0.87797 -5.22414,0.77996 -6.54688,-0.68165 -1.41853,-1.56746 -1.18112,-1.91707 2.92969,-4.32617 2.879,-1.6872 5.95013,-2.62109 8.61719,-2.62109 z m -17.48438,8 c 2.17044,0 2.5442,2.89766 0.51367,3.98437 -2.37278,1.26982 -2.75607,1.26606 -3.55664,-0.0293 -0.78395,-1.26846 1.28351,-3.95508 3.04297,-3.95508 z m 34.86719,0.15234 c 0.40628,0.0172 0.86103,0.15651 1.33984,0.45508 0.97816,0.60994 1.77735,1.69875 1.77735,2.41797 0,1.86346 -1.79505,2.21316 -3.77149,0.73633 -1.96473,-1.46809 -1.10627,-3.68406 0.6543,-3.60938 z m -17.38281,3.43946 c 2.07302,0 4.1459,0.22755 5.3125,0.68359 1.63491,0.63911 1.48784,1.10103 -1.5,4.69922 -1.82195,2.19413 -3.5375,3.98828 -3.8125,3.98828 -0.275,0 -1.99055,-1.79415 -3.8125,-3.98828 -2.98784,-3.59819 -3.13491,-4.06011 -1.5,-4.69922 1.16659,-0.45604 3.23947,-0.68359 5.3125,-0.68359 z m -25.73828,1.84179 c 2.06522,-0.18408 1.70842,1.85751 -1.54883,5.46289 -4.33754,4.80114 -6.30971,8.44354 -7.23047,13.35157 -0.37968,2.0239 -1.39038,4.25775 -2.2461,4.96484 -1.39195,1.15018 -1.49643,0.48161 -0.98242,-6.34766 0.70645,-9.38614 2.33932,-12.70694 7.73633,-15.74023 1.89505,-1.06508 3.33275,-1.60773 4.27149,-1.69141 z m 51.38671,0.17578 c 1.08706,0.0539 2.62073,0.5374 4.45508,1.56836 5.27241,2.96326 6.93864,6.33643 7.62695,15.4375 0.30712,4.06093 0.32415,7.38477 0.0371,7.38477 -1.12611,0 -2.57019,-2.66533 -3.25,-6 -0.93019,-4.56286 -4.85876,-11.33909 -8.01562,-13.82227 -3.47616,-2.73434 -3.24504,-4.687 -0.85352,-4.56836 z m -38.36523,1.54493 c 1.53613,0.0731 3.14204,1.7007 6.43945,5.83593 2.62782,3.2955 5.47279,5.996 6.32227,6 0.84949,0.005 3.22979,-2.20009 5.28906,-4.90039 2.05927,-2.70029 4.38084,-5.43689 5.1582,-6.08203 1.46129,-1.21277 5.50782,-0.50968 5.50782,0.95703 0,0.45671 -2.40425,3.91291 -5.34375,7.68164 -2.9395,3.76873 -5.90595,7.91357 -6.5918,9.20899 -1.83151,3.45934 -0.60912,8.03903 5.14062,19.25781 4.35669,8.50067 5.09085,10.75974 5.18555,15.9707 0.0879,4.83783 -0.26622,6.34423 -1.74414,7.42774 -1.59723,1.17097 -2.4548,1.06828 -6.19336,-0.74805 l -4.33984,-2.10937 2.49023,-2.96094 c 1.37045,-1.62868 2.35412,-3.6774 2.18555,-4.55274 -0.71293,-3.70194 -8.82686,-5.01509 -12.44336,-2.01367 -1.95061,1.61886 -1.66459,3.33797 1.09961,6.62305 l 2.44336,2.9043 -4.33985,2.10937 c -3.73856,1.81633 -4.59612,1.91902 -6.19336,0.74805 -1.48296,-1.0872 -1.83248,-2.58958 -1.74218,-7.51172 0.0974,-5.30821 0.83715,-7.60153 5.38086,-16.67578 6.01189,-12.00637 6.96663,-12.0155 6.99023,-0.0742 0.014,7.07823 0.18899,7.75 2.01563,7.75 1.84373,0 2,-0.66775 2,-8.5332 0,-10.44056 -0.9733,-12.88184 -8.88282,-22.28125 -8.75824,-10.40799 -9.80577,-12.13642 -8.03711,-13.25586 0.82216,-0.52037 1.50489,-0.80862 2.20313,-0.77539 z m -8.26953,4.3457 3.20508,3.5 3.20312,3.5 -5.03125,0.61914 c -2.76732,0.34043 -6.01243,1.14374 -7.21094,1.78516 -3.48172,1.86336 -2.65682,-0.47934 1.82813,-5.19336 l 4.00586,-4.21094 z m 41.80664,0 3.17578,3 c 1.74679,1.65 3.60298,3.7875 4.125,4.75 0.90376,1.66635 -0.0868,2.4503 -1.41602,1.12109 -0.34541,-0.34542 -3.13603,-0.90792 -6.20312,-1.25 l -5.57813,-0.62109 2.94922,-3.5 2.94727,-3.5 z m -2.04883,11.94922 c 3.05357,0.0556 6.06143,0.79294 7.90625,2.19336 4.94699,3.75532 2.64846,9.8294 -5.90625,15.60742 -2.23935,1.5125 -4.65986,2.75 -5.37891,2.75 -1.89703,0 -6.49478,-8.34744 -7.10546,-12.90039 -0.46301,-3.45202 -0.19953,-4.11173 2.30078,-5.75 2.02972,-1.32993 5.13002,-1.95595 8.18359,-1.90039 z m -36.64258,0.58008 c 2.56427,0.0434 5.06525,0.53599 6.92188,1.49609 3.84044,1.98599 3.82568,4.79563 -0.0645,12.50195 -1.65791,3.28431 -3.6153,5.97266 -4.3496,5.97266 -1.93145,0 -9.13867,-5.06581 -11.4961,-8.08008 -1.10932,-1.41841 -2.3132,-3.76043 -2.67578,-5.20508 -0.56011,-2.23164 -0.15444,-2.93414 2.68945,-4.66797 2.27615,-1.38768 5.67769,-2.07332 8.97461,-2.01757 z m -3.14258,4.9707 c -4.96219,0 -4.5994,0.85884 2.32422,5.52148 6.0047,4.0438 6.68946,4.19022 6.68946,1.43164 0,-3.56473 -4.39356,-6.95312 -9.01368,-6.95312 z m 42.0918,0 c -4.68481,0 -9.07812,3.36374 -9.07812,6.95312 0,1.125 0.29776,2.04688 0.66211,2.04688 1.06832,0 10.07471,-5.97813 11.38476,-7.55664 1.01317,-1.22079 0.55226,-1.44336 -2.96875,-1.44336 z m -55.02734,5.71289 c 0.5647,-0.0773 1.31791,0.87515 3.05664,3.27539 2.54981,3.51991 9.77032,9.13698 13.22656,10.28906 0.7232,0.24107 0.75641,1.41587 0.10547,3.68555 l -0.95508,3.33203 -3.625,-4.39844 c -1.99333,-2.41894 -5.91696,-5.74648 -8.7207,-7.39648 -5.27453,-3.10405 -5.88287,-4.24186 -4.07227,-7.625 0.374,-0.69882 0.64556,-1.11573 0.98438,-1.16211 z m 67.91406,0.0996 c 0.35585,0.0261 0.62755,0.42387 0.99023,1.10156 1.74142,3.25388 1.21412,4.54158 -2.70507,6.60352 -2.0625,1.0851 -6.02378,4.30726 -8.80469,7.16015 l -5.05664,5.1875 -1.08008,-2.86132 c -1.0463,-2.77194 -0.90718,-2.96059 4.52344,-6.18165 3.08133,-1.82761 7.0589,-5.24407 8.83984,-7.59179 1.87284,-2.46886 2.69988,-3.46139 3.29297,-3.41797 z m -70.63477,10.71289 c 0.45331,-0.0357 1.0609,0.14631 1.82032,0.55273 3.77881,2.02236 9.94823,8.2333 12.49218,12.57422 1.39273,2.37651 2.38099,4.70636 2.19532,5.17774 -0.18566,0.47137 -3.56736,-1.10985 -7.51563,-3.51563 -6.08616,-3.70844 -7.43493,-5.04285 -8.85742,-8.76758 -1.46892,-3.8463 -1.4947,-5.91441 -0.13477,-6.02148 z m 73.29493,0.14844 c 1.35569,0.11387 1.36188,2.07298 -0.0879,5.86914 -1.43254,3.75105 -2.76069,5.04914 -9.10743,8.90234 -4.36694,2.65123 -7.42968,3.98245 -7.42968,3.22852 0,-1.90501 5.31113,-9.79309 8.61523,-12.79492 3.9475,-3.58637 6.65407,-5.31895 8.00977,-5.20508 z m -36.625,24.48828 c 0.72808,0 1.45617,0.27925 2.5,0.83789 1.375,0.73588 2.5,1.71091 2.5,2.16797 0,0.45706 -2.25,0.83203 -5,0.83203 -5.51228,0 -6.31213,-0.95981 -2.5,-3 1.04383,-0.55864 1.77191,-0.83789 2.5,-0.83789 z"
         id="path4302" />
      <path
         id="path4304"
         d="m 376.55273,684.72852 c -2.5846,-0.0906 -5.19568,1.64548 -5.79492,4.05468 -0.3039,1.22163 -0.42353,18.90719 -0.26367,39.30078 l 0.29102,37.08008 2.70507,3.54492 c 2.44796,3.20817 14.32346,10.76977 30.29493,19.29102 7.913,4.22182 11.30065,3.4355 29.04101,-6.74805 9.60952,-5.51618 16.03194,-9.90172 17.95899,-12.25976 l 3,-3.66992 0.29101,-37.15821 c 0.15986,-20.43717 0.0421,-38.15923 -0.26172,-39.38086 -0.68484,-2.75337 -3.99945,-4.62749 -6.89648,-3.90039 -1.19982,0.30114 -5.75683,4.83835 -10.12695,10.08399 -4.37013,5.24563 -8.30493,9.53906 -8.74414,9.53906 -0.43923,0 -3.3279,-1.35 -6.41993,-3 -7.21198,-3.84852 -11.46966,-3.84852 -18.68164,0 -3.09203,1.65 -5.9807,3 -6.41992,3 -0.43922,0 -4.37401,-4.29343 -8.74414,-9.53906 -4.37012,-5.24564 -8.92713,-9.78285 -10.12695,-10.08399 -0.36213,-0.0909 -0.73234,-0.14136 -1.10157,-0.15429 z m 72.0918,5.0625 c 2.70557,0.90075 1.35319,4.13232 -4.88281,11.66992 -3.66007,4.424 -6.95326,8.03037 -7.31641,8.01367 -0.36314,-0.0167 -1.45564,-0.49262 -2.42773,-1.05859 -1.56841,-0.91316 -0.90741,-2.04182 5.85937,-10.01758 4.19401,-4.94333 8.1395,-8.81652 8.76758,-8.60742 z m -72.98242,0.25195 c 1.36483,-0.12664 3.98716,2.40843 9.04101,8.36523 7.05952,8.32079 7.48666,9.07668 5.67383,10.04688 -1.07823,0.57705 -2.17374,1.05078 -2.43554,1.05078 -1.32999,0 -13.74098,-16.31764 -13.47071,-17.71094 0.21077,-1.08657 0.57103,-1.69439 1.19141,-1.75195 z m -0.50977,12.46289 c 0.91193,0 8.13282,8.8597 8.13282,9.97852 0,0.35787 -1.6875,1.50857 -3.75,2.55859 -2.0625,1.05002 -4.0875,2.07184 -4.5,2.26953 -0.4125,0.19768 -0.75,-3.05377 -0.75,-7.22461 0,-4.17083 0.39075,-7.58203 0.86718,-7.58203 z m 74.26758,0 c 0.47643,0 0.86524,3.375 0.86524,7.5 0,4.125 -0.3375,7.45032 -0.75,7.39062 -1.32078,-0.19099 -8.2431,-4.36874 -8.2461,-4.97656 -0.005,-1.0692 7.24903,-9.91406 8.13086,-9.91406 z m -37.13476,1 c 2.66706,0 5.73818,0.93389 8.61718,2.62109 4.11081,2.4091 4.34822,2.75872 2.92969,4.32617 -1.32274,1.46161 -2.25895,1.55962 -6.54492,0.68165 -3.41423,-0.6994 -6.58772,-0.6994 -10.00195,0 -4.28597,0.87797 -5.22414,0.77996 -6.54688,-0.68165 -1.41853,-1.56746 -1.18112,-1.91707 2.92969,-4.32617 2.879,-1.6872 5.95013,-2.62109 8.61719,-2.62109 z m -17.48438,8 c 2.17044,0 2.5442,2.89766 0.51367,3.98437 -2.37278,1.26982 -2.75607,1.26606 -3.55664,-0.0293 -0.78395,-1.26846 1.28351,-3.95508 3.04297,-3.95508 z m 34.86719,0.15234 c 0.40628,0.0172 0.86103,0.15651 1.33984,0.45508 0.97816,0.60994 1.77735,1.69875 1.77735,2.41797 0,1.86346 -1.79505,2.21316 -3.77149,0.73633 -1.96473,-1.46809 -1.10627,-3.68406 0.6543,-3.60938 z m -17.38281,3.43946 c 2.07302,0 4.1459,0.22755 5.3125,0.68359 1.63491,0.63911 1.48784,1.10103 -1.5,4.69922 -1.82195,2.19413 -3.5375,3.98828 -3.8125,3.98828 -0.275,0 -1.99055,-1.79415 -3.8125,-3.98828 -2.98784,-3.59819 -3.13491,-4.06011 -1.5,-4.69922 1.16659,-0.45604 3.23947,-0.68359 5.3125,-0.68359 z m -25.73828,1.84179 c 2.06522,-0.18408 1.70842,1.85751 -1.54883,5.46289 -4.33754,4.80114 -6.30971,8.44354 -7.23047,13.35157 -0.37968,2.0239 -1.39038,4.25775 -2.2461,4.96484 -1.39195,1.15018 -1.49643,0.48161 -0.98242,-6.34766 0.70645,-9.38614 2.33932,-12.70694 7.73633,-15.74023 1.89505,-1.06508 3.33275,-1.60773 4.27149,-1.69141 z m 51.38671,0.17578 c 1.08706,0.0539 2.62073,0.5374 4.45508,1.56836 5.27241,2.96326 6.93864,6.33643 7.62695,15.4375 0.30712,4.06093 0.32415,7.38477 0.0371,7.38477 -1.12611,0 -2.57019,-2.66533 -3.25,-6 -0.93019,-4.56286 -4.85876,-11.33909 -8.01562,-13.82227 -3.47616,-2.73434 -3.24504,-4.687 -0.85352,-4.56836 z m -38.36523,1.54493 c 1.53613,0.0731 3.14204,1.7007 6.43945,5.83593 2.62782,3.2955 5.47279,5.996 6.32227,6 0.84949,0.005 3.22979,-2.20009 5.28906,-4.90039 2.05927,-2.70029 4.38084,-5.43689 5.1582,-6.08203 1.46129,-1.21277 5.50782,-0.50968 5.50782,0.95703 0,0.45671 -2.40425,3.91291 -5.34375,7.68164 -2.9395,3.76873 -5.90595,7.91357 -6.5918,9.20899 -1.83151,3.45934 -0.60912,8.03903 5.14062,19.25781 4.35669,8.50067 5.09085,10.75974 5.18555,15.9707 0.0879,4.83783 -0.26622,6.34423 -1.74414,7.42774 -1.59723,1.17097 -2.4548,1.06828 -6.19336,-0.74805 l -4.33984,-2.10937 2.49023,-2.96094 c 1.37045,-1.62868 2.35412,-3.6774 2.18555,-4.55274 -0.71293,-3.70194 -8.82686,-5.01509 -12.44336,-2.01367 -1.95061,1.61886 -1.66459,3.33797 1.09961,6.62305 l 2.44336,2.9043 -4.33985,2.10937 c -3.73856,1.81633 -4.59612,1.91902 -6.19336,0.74805 -1.48296,-1.0872 -1.83248,-2.58958 -1.74218,-7.51172 0.0974,-5.30821 0.83715,-7.60153 5.38086,-16.67578 6.01189,-12.00637 6.96663,-12.0155 6.99023,-0.0742 0.014,7.07823 0.18899,7.75 2.01563,7.75 1.84373,0 2,-0.66775 2,-8.5332 0,-10.44056 -0.9733,-12.88184 -8.88282,-22.28125 -8.75824,-10.40799 -9.80577,-12.13642 -8.03711,-13.25586 0.82216,-0.52037 1.50489,-0.80862 2.20313,-0.77539 z m -8.26953,4.3457 3.20508,3.5 3.20312,3.5 -5.03125,0.61914 c -2.76732,0.34043 -6.01243,1.14374 -7.21094,1.78516 -3.48172,1.86336 -2.65682,-0.47934 1.82813,-5.19336 l 4.00586,-4.21094 z m 41.80664,0 3.17578,3 c 1.74679,1.65 3.60298,3.7875 4.125,4.75 0.90376,1.66635 -0.0868,2.4503 -1.41602,1.12109 -0.34541,-0.34542 -3.13603,-0.90792 -6.20312,-1.25 l -5.57813,-0.62109 2.94922,-3.5 2.94727,-3.5 z m -2.04883,11.94922 c 3.05357,0.0556 6.06143,0.79294 7.90625,2.19336 4.94699,3.75532 2.64846,9.8294 -5.90625,15.60742 -2.23935,1.5125 -4.65986,2.75 -5.37891,2.75 -1.89703,0 -6.49478,-8.34744 -7.10546,-12.90039 -0.46301,-3.45202 -0.19953,-4.11173 2.30078,-5.75 2.02972,-1.32993 5.13002,-1.95595 8.18359,-1.90039 z m -36.64258,0.58008 c 2.56427,0.0434 5.06525,0.53599 6.92188,1.49609 3.84044,1.98599 3.82568,4.79563 -0.0645,12.50195 -1.65791,3.28431 -3.6153,5.97266 -4.3496,5.97266 -1.93145,0 -9.13867,-5.06581 -11.4961,-8.08008 -1.10932,-1.41841 -2.3132,-3.76043 -2.67578,-5.20508 -0.56011,-2.23164 -0.15444,-2.93414 2.68945,-4.66797 2.27615,-1.38768 5.67769,-2.07332 8.97461,-2.01757 z m -3.14258,4.9707 c -4.96219,0 -4.5994,0.85884 2.32422,5.52148 6.0047,4.0438 6.68946,4.19022 6.68946,1.43164 0,-3.56473 -4.39356,-6.95312 -9.01368,-6.95312 z m 42.0918,0 c -4.68481,0 -9.07812,3.36374 -9.07812,6.95312 0,1.125 0.29776,2.04688 0.66211,2.04688 1.06832,0 10.07471,-5.97813 11.38476,-7.55664 1.01317,-1.22079 0.55226,-1.44336 -2.96875,-1.44336 z m -55.02734,5.71289 c 0.5647,-0.0773 1.31791,0.87515 3.05664,3.27539 2.54981,3.51991 9.77032,9.13698 13.22656,10.28906 0.7232,0.24107 0.75641,1.41587 0.10547,3.68555 l -0.95508,3.33203 -3.625,-4.39844 c -1.99333,-2.41894 -5.91696,-5.74648 -8.7207,-7.39648 -5.27453,-3.10405 -5.88287,-4.24186 -4.07227,-7.625 0.374,-0.69882 0.64556,-1.11573 0.98438,-1.16211 z m 67.91406,0.0996 c 0.35585,0.0261 0.62755,0.42387 0.99023,1.10156 1.74142,3.25388 1.21412,4.54158 -2.70507,6.60352 -2.0625,1.0851 -6.02378,4.30726 -8.80469,7.16015 l -5.05664,5.1875 -1.08008,-2.86132 c -1.0463,-2.77194 -0.90718,-2.96059 4.52344,-6.18165 3.08133,-1.82761 7.0589,-5.24407 8.83984,-7.59179 1.87284,-2.46886 2.69988,-3.46139 3.29297,-3.41797 z m -70.63477,10.71289 c 0.45331,-0.0357 1.0609,0.14631 1.82032,0.55273 3.77881,2.02236 9.94823,8.2333 12.49218,12.57422 1.39273,2.37651 2.38099,4.70636 2.19532,5.17774 -0.18566,0.47137 -3.56736,-1.10985 -7.51563,-3.51563 -6.08616,-3.70844 -7.43493,-5.04285 -8.85742,-8.76758 -1.46892,-3.8463 -1.4947,-5.91441 -0.13477,-6.02148 z m 73.29493,0.14844 c 1.35569,0.11387 1.36188,2.07298 -0.0879,5.86914 -1.43254,3.75105 -2.76069,5.04914 -9.10743,8.90234 -4.36694,2.65123 -7.42968,3.98245 -7.42968,3.22852 0,-1.90501 5.31113,-9.79309 8.61523,-12.79492 3.9475,-3.58637 6.65407,-5.31895 8.00977,-5.20508 z m -36.625,24.48828 c 0.72808,0 1.45617,0.27925 2.5,0.83789 1.375,0.73588 2.5,1.71091 2.5,2.16797 0,0.45706 -2.25,0.83203 -5,0.83203 -5.51228,0 -6.31213,-0.95981 -2.5,-3 1.04383,-0.55864 1.77191,-0.83789 2.5,-0.83789 z"
         style="fill:#ffffff"
         inkscape:connector-curvature="0" />
    </g>
    <g
       id="g4768"
       inkscape:export-xdpi="90"
       inkscape:export-ydpi="90">
      <rect
         style="fill:#60bff3;fill-opacity:1;stroke:none;stroke-width:1;stroke-linecap:round;stroke-linejoin:round;stroke-miterlimit:4;stroke-dasharray:none;stroke-opacity:1"
         id="rect4759"
         width="113.92857"
         height="126.78571"
         x="497.2785"
         y="681.71893"
         ry="5.0507598" />
      <path
         id="path4761"
         d="m 523.97409,695.79959 c -2.5846,-0.0906 -5.19568,1.64548 -5.79492,4.05468 -0.3039,1.22163 -0.42353,18.90719 -0.26367,39.30078 l 0.29102,37.08008 2.70507,3.54492 c 2.44796,3.20817 14.32346,10.76977 30.29493,19.29102 7.913,4.22182 11.30065,3.4355 29.04101,-6.74805 9.60952,-5.51618 16.03194,-9.90172 17.95899,-12.25976 l 3,-3.66992 0.29101,-37.15821 c 0.15986,-20.43717 0.0421,-38.15923 -0.26172,-39.38086 -0.68484,-2.75337 -3.99945,-4.62749 -6.89648,-3.90039 -1.19982,0.30114 -5.75683,4.83835 -10.12695,10.08399 -4.37013,5.24563 -8.30493,9.53906 -8.74414,9.53906 -0.43923,0 -3.3279,-1.35 -6.41993,-3 -7.21198,-3.84852 -11.46966,-3.84852 -18.68164,0 -3.09203,1.65 -5.9807,3 -6.41992,3 -0.43922,0 -4.37401,-4.29343 -8.74414,-9.53906 -4.37012,-5.24564 -8.92713,-9.78285 -10.12695,-10.08399 -0.36213,-0.0909 -0.73234,-0.14136 -1.10157,-0.15429 z m 72.0918,5.0625 c 2.70557,0.90075 1.35319,4.13232 -4.88281,11.66992 -3.66007,4.424 -6.95326,8.03037 -7.31641,8.01367 -0.36314,-0.0167 -1.45564,-0.49262 -2.42773,-1.05859 -1.56841,-0.91316 -0.90741,-2.04182 5.85937,-10.01758 4.19401,-4.94333 8.1395,-8.81652 8.76758,-8.60742 z m -72.98242,0.25195 c 1.36483,-0.12664 3.98716,2.40843 9.04101,8.36523 7.05952,8.32079 7.48666,9.07668 5.67383,10.04688 -1.07823,0.57705 -2.17374,1.05078 -2.43554,1.05078 -1.32999,0 -13.74098,-16.31764 -13.47071,-17.71094 0.21077,-1.08657 0.57103,-1.69439 1.19141,-1.75195 z m -0.50977,12.46289 c 0.91193,0 8.13282,8.8597 8.13282,9.97852 0,0.35787 -1.6875,1.50857 -3.75,2.55859 -2.0625,1.05002 -4.0875,2.07184 -4.5,2.26953 -0.4125,0.19768 -0.75,-3.05377 -0.75,-7.22461 0,-4.17083 0.39075,-7.58203 0.86718,-7.58203 z m 74.26758,0 c 0.47643,0 0.86524,3.375 0.86524,7.5 0,4.125 -0.3375,7.45032 -0.75,7.39062 -1.32078,-0.19099 -8.2431,-4.36874 -8.2461,-4.97656 -0.005,-1.0692 7.24903,-9.91406 8.13086,-9.91406 z m -37.13476,1 c 2.66706,0 5.73818,0.93389 8.61718,2.62109 4.11081,2.4091 4.34822,2.75872 2.92969,4.32617 -1.32274,1.46161 -2.25895,1.55962 -6.54492,0.68165 -3.41423,-0.6994 -6.58772,-0.6994 -10.00195,0 -4.28597,0.87797 -5.22414,0.77996 -6.54688,-0.68165 -1.41853,-1.56746 -1.18112,-1.91707 2.92969,-4.32617 2.879,-1.6872 5.95013,-2.62109 8.61719,-2.62109 z m -17.48438,8 c 2.17044,0 2.5442,2.89766 0.51367,3.98437 -2.37278,1.26982 -2.75607,1.26606 -3.55664,-0.0293 -0.78395,-1.26846 1.28351,-3.95508 3.04297,-3.95508 z m 34.86719,0.15234 c 0.40628,0.0172 0.86103,0.15651 1.33984,0.45508 0.97816,0.60994 1.77735,1.69875 1.77735,2.41797 0,1.86346 -1.79505,2.21316 -3.77149,0.73633 -1.96473,-1.46809 -1.10627,-3.68406 0.6543,-3.60938 z m -17.38281,3.43946 c 2.07302,0 4.1459,0.22755 5.3125,0.68359 1.63491,0.63911 1.48784,1.10103 -1.5,4.69922 -1.82195,2.19413 -3.5375,3.98828 -3.8125,3.98828 -0.275,0 -1.99055,-1.79415 -3.8125,-3.98828 -2.98784,-3.59819 -3.13491,-4.06011 -1.5,-4.69922 1.16659,-0.45604 3.23947,-0.68359 5.3125,-0.68359 z m -25.73828,1.84179 c 2.06522,-0.18408 1.70842,1.85751 -1.54883,5.46289 -4.33754,4.80114 -6.30971,8.44354 -7.23047,13.35157 -0.37968,2.0239 -1.39038,4.25775 -2.2461,4.96484 -1.39195,1.15018 -1.49643,0.48161 -0.98242,-6.34766 0.70645,-9.38614 2.33932,-12.70694 7.73633,-15.74023 1.89505,-1.06508 3.33275,-1.60773 4.27149,-1.69141 z m 51.38671,0.17578 c 1.08706,0.0539 2.62073,0.5374 4.45508,1.56836 5.27241,2.96326 6.93864,6.33643 7.62695,15.4375 0.30712,4.06093 0.32415,7.38477 0.0371,7.38477 -1.12611,0 -2.57019,-2.66533 -3.25,-6 -0.93019,-4.56286 -4.85876,-11.33909 -8.01562,-13.82227 -3.47616,-2.73434 -3.24504,-4.687 -0.85352,-4.56836 z m -38.36523,1.54493 c 1.53613,0.0731 3.14204,1.7007 6.43945,5.83593 2.62782,3.2955 5.47279,5.996 6.32227,6 0.84949,0.005 3.22979,-2.20009 5.28906,-4.90039 2.05927,-2.70029 4.38084,-5.43689 5.1582,-6.08203 1.46129,-1.21277 5.50782,-0.50968 5.50782,0.95703 0,0.45671 -2.40425,3.91291 -5.34375,7.68164 -2.9395,3.76873 -5.90595,7.91357 -6.5918,9.20899 -1.83151,3.45934 -0.60912,8.03903 5.14062,19.25781 4.35669,8.50067 5.09085,10.75974 5.18555,15.9707 0.0879,4.83783 -0.26622,6.34423 -1.74414,7.42774 -1.59723,1.17097 -2.4548,1.06828 -6.19336,-0.74805 l -4.33984,-2.10937 2.49023,-2.96094 c 1.37045,-1.62868 2.35412,-3.6774 2.18555,-4.55274 -0.71293,-3.70194 -8.82686,-5.01509 -12.44336,-2.01367 -1.95061,1.61886 -1.66459,3.33797 1.09961,6.62305 l 2.44336,2.9043 -4.33985,2.10937 c -3.73856,1.81633 -4.59612,1.91902 -6.19336,0.74805 -1.48296,-1.0872 -1.83248,-2.58958 -1.74218,-7.51172 0.0974,-5.30821 0.83715,-7.60153 5.38086,-16.67578 6.01189,-12.00637 6.96663,-12.0155 6.99023,-0.0742 0.014,7.07823 0.18899,7.75 2.01563,7.75 1.84373,0 2,-0.66775 2,-8.5332 0,-10.44056 -0.9733,-12.88184 -8.88282,-22.28125 -8.75824,-10.40799 -9.80577,-12.13642 -8.03711,-13.25586 0.82216,-0.52037 1.50489,-0.80862 2.20313,-0.77539 z m -8.26953,4.3457 3.20508,3.5 3.20312,3.5 -5.03125,0.61914 c -2.76732,0.34043 -6.01243,1.14374 -7.21094,1.78516 -3.48172,1.86336 -2.65682,-0.47934 1.82813,-5.19336 l 4.00586,-4.21094 z m 41.80664,0 3.17578,3 c 1.74679,1.65 3.60298,3.7875 4.125,4.75 0.90376,1.66635 -0.0868,2.4503 -1.41602,1.12109 -0.34541,-0.34542 -3.13603,-0.90792 -6.20312,-1.25 l -5.57813,-0.62109 2.94922,-3.5 2.94727,-3.5 z m -2.04883,11.94922 c 3.05357,0.0556 6.06143,0.79294 7.90625,2.19336 4.94699,3.75532 2.64846,9.8294 -5.90625,15.60742 -2.23935,1.5125 -4.65986,2.75 -5.37891,2.75 -1.89703,0 -6.49478,-8.34744 -7.10546,-12.90039 -0.46301,-3.45202 -0.19953,-4.11173 2.30078,-5.75 2.02972,-1.32993 5.13002,-1.95595 8.18359,-1.90039 z m -36.64258,0.58008 c 2.56427,0.0434 5.06525,0.53599 6.92188,1.49609 3.84044,1.98599 3.82568,4.79563 -0.0645,12.50195 -1.65791,3.28431 -3.6153,5.97266 -4.3496,5.97266 -1.93145,0 -9.13867,-5.06581 -11.4961,-8.08008 -1.10932,-1.41841 -2.3132,-3.76043 -2.67578,-5.20508 -0.56011,-2.23164 -0.15444,-2.93414 2.68945,-4.66797 2.27615,-1.38768 5.67769,-2.07332 8.97461,-2.01757 z m -3.14258,4.9707 c -4.96219,0 -4.5994,0.85884 2.32422,5.52148 6.0047,4.0438 6.68946,4.19022 6.68946,1.43164 0,-3.56473 -4.39356,-6.95312 -9.01368,-6.95312 z m 42.0918,0 c -4.68481,0 -9.07812,3.36374 -9.07812,6.95312 0,1.125 0.29776,2.04688 0.66211,2.04688 1.06832,0 10.07471,-5.97813 11.38476,-7.55664 1.01317,-1.22079 0.55226,-1.44336 -2.96875,-1.44336 z m -55.02734,5.71289 c 0.5647,-0.0773 1.31791,0.87515 3.05664,3.27539 2.54981,3.51991 9.77032,9.13698 13.22656,10.28906 0.7232,0.24107 0.75641,1.41587 0.10547,3.68555 l -0.95508,3.33203 -3.625,-4.39844 c -1.99333,-2.41894 -5.91696,-5.74648 -8.7207,-7.39648 -5.27453,-3.10405 -5.88287,-4.24186 -4.07227,-7.625 0.374,-0.69882 0.64556,-1.11573 0.98438,-1.16211 z m 67.91406,0.0996 c 0.35585,0.0261 0.62755,0.42387 0.99023,1.10156 1.74142,3.25388 1.21412,4.54158 -2.70507,6.60352 -2.0625,1.0851 -6.02378,4.30726 -8.80469,7.16015 l -5.05664,5.1875 -1.08008,-2.86132 c -1.0463,-2.77194 -0.90718,-2.96059 4.52344,-6.18165 3.08133,-1.82761 7.0589,-5.24407 8.83984,-7.59179 1.87284,-2.46886 2.69988,-3.46139 3.29297,-3.41797 z m -70.63477,10.71289 c 0.45331,-0.0357 1.0609,0.14631 1.82032,0.55273 3.77881,2.02236 9.94823,8.2333 12.49218,12.57422 1.39273,2.37651 2.38099,4.70636 2.19532,5.17774 -0.18566,0.47137 -3.56736,-1.10985 -7.51563,-3.51563 -6.08616,-3.70844 -7.43493,-5.04285 -8.85742,-8.76758 -1.46892,-3.8463 -1.4947,-5.91441 -0.13477,-6.02148 z m 73.29493,0.14844 c 1.35569,0.11387 1.36188,2.07298 -0.0879,5.86914 -1.43254,3.75105 -2.76069,5.04914 -9.10743,8.90234 -4.36694,2.65123 -7.42968,3.98245 -7.42968,3.22852 0,-1.90501 5.31113,-9.79309 8.61523,-12.79492 3.9475,-3.58637 6.65407,-5.31895 8.00977,-5.20508 z m -36.625,24.48828 c 0.72808,0 1.45617,0.27925 2.5,0.83789 1.375,0.73588 2.5,1.71091 2.5,2.16797 0,0.45706 -2.25,0.83203 -5,0.83203 -5.51228,0 -6.31213,-0.95981 -2.5,-3 1.04383,-0.55864 1.77191,-0.83789 2.5,-0.83789 z"
         style="opacity:0.869;fill:#000000;fill-opacity:0.64814812;filter:url(#filter4738)"
         inkscape:connector-curvature="0" />
      <path
         inkscape:connector-curvature="0"
         style="fill:#ffffff;stroke:#000000;stroke-opacity:1"
         d="m 517.97409,691.79959 c -2.5846,-0.0906 -5.19568,1.64548 -5.79492,4.05468 -0.3039,1.22163 -0.42353,18.90719 -0.26367,39.30078 l 0.29102,37.08008 2.70507,3.54492 c 2.44796,3.20817 14.32346,10.76977 30.29493,19.29102 7.913,4.22182 11.30065,3.4355 29.04101,-6.74805 9.60952,-5.51618 16.03194,-9.90172 17.95899,-12.25976 l 3,-3.66992 0.29101,-37.15821 c 0.15986,-20.43717 0.0421,-38.15923 -0.26172,-39.38086 -0.68484,-2.75337 -3.99945,-4.62749 -6.89648,-3.90039 -1.19982,0.30114 -5.75683,4.83835 -10.12695,10.08399 -4.37013,5.24563 -8.30493,9.53906 -8.74414,9.53906 -0.43923,0 -3.3279,-1.35 -6.41993,-3 -7.21198,-3.84852 -11.46966,-3.84852 -18.68164,0 -3.09203,1.65 -5.9807,3 -6.41992,3 -0.43922,0 -4.37401,-4.29343 -8.74414,-9.53906 -4.37012,-5.24564 -8.92713,-9.78285 -10.12695,-10.08399 -0.36213,-0.0909 -0.73234,-0.14136 -1.10157,-0.15429 z m 72.0918,5.0625 c 2.70557,0.90075 1.35319,4.13232 -4.88281,11.66992 -3.66007,4.424 -6.95326,8.03037 -7.31641,8.01367 -0.36314,-0.0167 -1.45564,-0.49262 -2.42773,-1.05859 -1.56841,-0.91316 -0.90741,-2.04182 5.85937,-10.01758 4.19401,-4.94333 8.1395,-8.81652 8.76758,-8.60742 z m -72.98242,0.25195 c 1.36483,-0.12664 3.98716,2.40843 9.04101,8.36523 7.05952,8.32079 7.48666,9.07668 5.67383,10.04688 -1.07823,0.57705 -2.17374,1.05078 -2.43554,1.05078 -1.32999,0 -13.74098,-16.31764 -13.47071,-17.71094 0.21077,-1.08657 0.57103,-1.69439 1.19141,-1.75195 z m -0.50977,12.46289 c 0.91193,0 8.13282,8.8597 8.13282,9.97852 0,0.35787 -1.6875,1.50857 -3.75,2.55859 -2.0625,1.05002 -4.0875,2.07184 -4.5,2.26953 -0.4125,0.19768 -0.75,-3.05377 -0.75,-7.22461 0,-4.17083 0.39075,-7.58203 0.86718,-7.58203 z m 74.26758,0 c 0.47643,0 0.86524,3.375 0.86524,7.5 0,4.125 -0.3375,7.45032 -0.75,7.39062 -1.32078,-0.19099 -8.2431,-4.36874 -8.2461,-4.97656 -0.005,-1.0692 7.24903,-9.91406 8.13086,-9.91406 z m -37.13476,1 c 2.66706,0 5.73818,0.93389 8.61718,2.62109 4.11081,2.4091 4.34822,2.75872 2.92969,4.32617 -1.32274,1.46161 -2.25895,1.55962 -6.54492,0.68165 -3.41423,-0.6994 -6.58772,-0.6994 -10.00195,0 -4.28597,0.87797 -5.22414,0.77996 -6.54688,-0.68165 -1.41853,-1.56746 -1.18112,-1.91707 2.92969,-4.32617 2.879,-1.6872 5.95013,-2.62109 8.61719,-2.62109 z m -17.48438,8 c 2.17044,0 2.5442,2.89766 0.51367,3.98437 -2.37278,1.26982 -2.75607,1.26606 -3.55664,-0.0293 -0.78395,-1.26846 1.28351,-3.95508 3.04297,-3.95508 z m 34.86719,0.15234 c 0.40628,0.0172 0.86103,0.15651 1.33984,0.45508 0.97816,0.60994 1.77735,1.69875 1.77735,2.41797 0,1.86346 -1.79505,2.21316 -3.77149,0.73633 -1.96473,-1.46809 -1.10627,-3.68406 0.6543,-3.60938 z m -17.38281,3.43946 c 2.07302,0 4.1459,0.22755 5.3125,0.68359 1.63491,0.63911 1.48784,1.10103 -1.5,4.69922 -1.82195,2.19413 -3.5375,3.98828 -3.8125,3.98828 -0.275,0 -1.99055,-1.79415 -3.8125,-3.98828 -2.98784,-3.59819 -3.13491,-4.06011 -1.5,-4.69922 1.16659,-0.45604 3.23947,-0.68359 5.3125,-0.68359 z m -25.73828,1.84179 c 2.06522,-0.18408 1.70842,1.85751 -1.54883,5.46289 -4.33754,4.80114 -6.30971,8.44354 -7.23047,13.35157 -0.37968,2.0239 -1.39038,4.25775 -2.2461,4.96484 -1.39195,1.15018 -1.49643,0.48161 -0.98242,-6.34766 0.70645,-9.38614 2.33932,-12.70694 7.73633,-15.74023 1.89505,-1.06508 3.33275,-1.60773 4.27149,-1.69141 z m 51.38671,0.17578 c 1.08706,0.0539 2.62073,0.5374 4.45508,1.56836 5.27241,2.96326 6.93864,6.33643 7.62695,15.4375 0.30712,4.06093 0.32415,7.38477 0.0371,7.38477 -1.12611,0 -2.57019,-2.66533 -3.25,-6 -0.93019,-4.56286 -4.85876,-11.33909 -8.01562,-13.82227 -3.47616,-2.73434 -3.24504,-4.687 -0.85352,-4.56836 z m -38.36523,1.54493 c 1.53613,0.0731 3.14204,1.7007 6.43945,5.83593 2.62782,3.2955 5.47279,5.996 6.32227,6 0.84949,0.005 3.22979,-2.20009 5.28906,-4.90039 2.05927,-2.70029 4.38084,-5.43689 5.1582,-6.08203 1.46129,-1.21277 5.50782,-0.50968 5.50782,0.95703 0,0.45671 -2.40425,3.91291 -5.34375,7.68164 -2.9395,3.76873 -5.90595,7.91357 -6.5918,9.20899 -1.83151,3.45934 -0.60912,8.03903 5.14062,19.25781 4.35669,8.50067 5.09085,10.75974 5.18555,15.9707 0.0879,4.83783 -0.26622,6.34423 -1.74414,7.42774 -1.59723,1.17097 -2.4548,1.06828 -6.19336,-0.74805 l -4.33984,-2.10937 2.49023,-2.96094 c 1.37045,-1.62868 2.35412,-3.6774 2.18555,-4.55274 -0.71293,-3.70194 -8.82686,-5.01509 -12.44336,-2.01367 -1.95061,1.61886 -1.66459,3.33797 1.09961,6.62305 l 2.44336,2.9043 -4.33985,2.10937 c -3.73856,1.81633 -4.59612,1.91902 -6.19336,0.74805 -1.48296,-1.0872 -1.83248,-2.58958 -1.74218,-7.51172 0.0974,-5.30821 0.83715,-7.60153 5.38086,-16.67578 6.01189,-12.00637 6.96663,-12.0155 6.99023,-0.0742 0.014,7.07823 0.18899,7.75 2.01563,7.75 1.84373,0 2,-0.66775 2,-8.5332 0,-10.44056 -0.9733,-12.88184 -8.88282,-22.28125 -8.75824,-10.40799 -9.80577,-12.13642 -8.03711,-13.25586 0.82216,-0.52037 1.50489,-0.80862 2.20313,-0.77539 z m -8.26953,4.3457 3.20508,3.5 3.20312,3.5 -5.03125,0.61914 c -2.76732,0.34043 -6.01243,1.14374 -7.21094,1.78516 -3.48172,1.86336 -2.65682,-0.47934 1.82813,-5.19336 l 4.00586,-4.21094 z m 41.80664,0 3.17578,3 c 1.74679,1.65 3.60298,3.7875 4.125,4.75 0.90376,1.66635 -0.0868,2.4503 -1.41602,1.12109 -0.34541,-0.34542 -3.13603,-0.90792 -6.20312,-1.25 l -5.57813,-0.62109 2.94922,-3.5 2.94727,-3.5 z m -2.04883,11.94922 c 3.05357,0.0556 6.06143,0.79294 7.90625,2.19336 4.94699,3.75532 2.64846,9.8294 -5.90625,15.60742 -2.23935,1.5125 -4.65986,2.75 -5.37891,2.75 -1.89703,0 -6.49478,-8.34744 -7.10546,-12.90039 -0.46301,-3.45202 -0.19953,-4.11173 2.30078,-5.75 2.02972,-1.32993 5.13002,-1.95595 8.18359,-1.90039 z m -36.64258,0.58008 c 2.56427,0.0434 5.06525,0.53599 6.92188,1.49609 3.84044,1.98599 3.82568,4.79563 -0.0645,12.50195 -1.65791,3.28431 -3.6153,5.97266 -4.3496,5.97266 -1.93145,0 -9.13867,-5.06581 -11.4961,-8.08008 -1.10932,-1.41841 -2.3132,-3.76043 -2.67578,-5.20508 -0.56011,-2.23164 -0.15444,-2.93414 2.68945,-4.66797 2.27615,-1.38768 5.67769,-2.07332 8.97461,-2.01757 z m -3.14258,4.9707 c -4.96219,0 -4.5994,0.85884 2.32422,5.52148 6.0047,4.0438 6.68946,4.19022 6.68946,1.43164 0,-3.56473 -4.39356,-6.95312 -9.01368,-6.95312 z m 42.0918,0 c -4.68481,0 -9.07812,3.36374 -9.07812,6.95312 0,1.125 0.29776,2.04688 0.66211,2.04688 1.06832,0 10.07471,-5.97813 11.38476,-7.55664 1.01317,-1.22079 0.55226,-1.44336 -2.96875,-1.44336 z m -55.02734,5.71289 c 0.5647,-0.0773 1.31791,0.87515 3.05664,3.27539 2.54981,3.51991 9.77032,9.13698 13.22656,10.28906 0.7232,0.24107 0.75641,1.41587 0.10547,3.68555 l -0.95508,3.33203 -3.625,-4.39844 c -1.99333,-2.41894 -5.91696,-5.74648 -8.7207,-7.39648 -5.27453,-3.10405 -5.88287,-4.24186 -4.07227,-7.625 0.374,-0.69882 0.64556,-1.11573 0.98438,-1.16211 z m 67.91406,0.0996 c 0.35585,0.0261 0.62755,0.42387 0.99023,1.10156 1.74142,3.25388 1.21412,4.54158 -2.70507,6.60352 -2.0625,1.0851 -6.02378,4.30726 -8.80469,7.16015 l -5.05664,5.1875 -1.08008,-2.86132 c -1.0463,-2.77194 -0.90718,-2.96059 4.52344,-6.18165 3.08133,-1.82761 7.0589,-5.24407 8.83984,-7.59179 1.87284,-2.46886 2.69988,-3.46139 3.29297,-3.41797 z m -70.63477,10.71289 c 0.45331,-0.0357 1.0609,0.14631 1.82032,0.55273 3.77881,2.02236 9.94823,8.2333 12.49218,12.57422 1.39273,2.37651 2.38099,4.70636 2.19532,5.17774 -0.18566,0.47137 -3.56736,-1.10985 -7.51563,-3.51563 -6.08616,-3.70844 -7.43493,-5.04285 -8.85742,-8.76758 -1.46892,-3.8463 -1.4947,-5.91441 -0.13477,-6.02148 z m 73.29493,0.14844 c 1.35569,0.11387 1.36188,2.07298 -0.0879,5.86914 -1.43254,3.75105 -2.76069,5.04914 -9.10743,8.90234 -4.36694,2.65123 -7.42968,3.98245 -7.42968,3.22852 0,-1.90501 5.31113,-9.79309 8.61523,-12.79492 3.9475,-3.58637 6.65407,-5.31895 8.00977,-5.20508 z m -36.625,24.48828 c 0.72808,0 1.45617,0.27925 2.5,0.83789 1.375,0.73588 2.5,1.71091 2.5,2.16797 0,0.45706 -2.25,0.83203 -5,0.83203 -5.51228,0 -6.31213,-0.95981 -2.5,-3 1.04383,-0.55864 1.77191,-0.83789 2.5,-0.83789 z"
         id="path4763" />
    </g>
  </g>
</svg>
